<svg id="Layer_1" data-name="Layer 1" xmlns="http://www.w3.org/2000/svg" viewBox="0 0 3456 1728"><defs><style>.cls-1{fill:#11121a;}.cls-2{isolation:isolate;}.cls-3{fill:#e0e1e0;}.cls-4{fill:#066599;}</style></defs><title>2ft_x_4ft_banner_svg</title><rect class="cls-1" width="3456" height="1728"/><g class="cls-2"><g class="cls-2"><path class="cls-3" d="M411.35,1576.47a27.67,27.67,0,0,1,19.45,8l-7.76,7.76a16,16,0,0,0-11.62-4.87,15.71,15.71,0,0,0-11.62,4.87,16.45,16.45,0,0,0,0,23.31,15.71,15.71,0,0,0,11.62,4.83,16.41,16.41,0,0,0,14.84-9.47H410.82v-10.37h27.8c.78,10.11-2.54,17.46-7.89,22.77a26.58,26.58,0,0,1-19.41,8,27.45,27.45,0,0,1-27.44-27.43,26.66,26.66,0,0,1,8.06-19.45,26.21,26.21,0,0,1,19.38-8.09Z"/><path class="cls-3" d="M476.06,1576.67v10.85H454.3v10.91h16.32v10.85H454.3v10.91h21.76V1631H443.42v-54.34Z"/><path class="cls-3" d="M513.37,1606.73v-30.06h10.91v55.38L491.64,1601V1631H480.76v-55.35Z"/><path class="cls-3" d="M563.63,1576.67v10.85H541.87v10.91h16.32v10.85H541.87v10.91h21.76V1631H531v-54.34Z"/></g><g class="cls-2"><path class="cls-3" d="M590.73,1632.15l-24.42-55.35h11.52l12.86,29.66,12.9-29.66h11.65Z"/></g><g class="cls-2"><path class="cls-3" d="M626.29,1575.69,651,1630.94H639.23l-3.67-8.23H617l-3.66,8.23H601.61Zm5,37.42-4.94-11.46-5,11.46Z"/><path class="cls-3" d="M655.71,1576.8h17.66a19.88,19.88,0,0,1,14.17,5.51c3.3,3.3,5.24,6.3,5.24,12.29V1596a17.53,17.53,0,0,1-3.42,10.31,12.31,12.31,0,0,1-6.48,5l12.59,19.61h-13.3l-15.55-24v24H655.74Zm25.86,18.14a7.33,7.33,0,0,0-2.15-5.21c-1.42-1.37-4.1-2.15-6.72-2.15h-6.11v15h4.2v0h3.62A7.44,7.44,0,0,0,681.57,1594.94Z"/><path class="cls-3" d="M745,1584.46a27.33,27.33,0,1,1-19.41-8.09A26.51,26.51,0,0,1,745,1584.46Zm-31.07,7.72a16.06,16.06,0,0,0-4.83,11.66,16.49,16.49,0,1,0,4.83-11.66Z"/><path class="cls-3" d="M785.63,1599.1a19.29,19.29,0,0,1,4.16,2.76,17.09,17.09,0,0,1,0,24,16.12,16.12,0,0,1-12,5H757.72V1576.8h15.11a14.6,14.6,0,0,1,10.75,4.5,14.24,14.24,0,0,1,4.3,10.31A17.27,17.27,0,0,1,785.63,1599.1Zm-12.8-11.72h-4.27v9.91c1,0,2.32-.14,4.07-.27a5.11,5.11,0,0,0,4.77-5A4.66,4.66,0,0,0,772.83,1587.38Zm11.28,26.5a6.75,6.75,0,0,0-6.28-6.65c-3.22-.18-6,0-9.27,0v13.13h9.27A6.34,6.34,0,0,0,784.11,1613.88Z"/></g><g class="cls-2"><path class="cls-3" d="M844.28,1584.46a27.34,27.34,0,1,1-19.42-8.09A26.55,26.55,0,0,1,844.28,1584.46Zm-31.07,7.72a16.06,16.06,0,0,0-4.84,11.66,16.48,16.48,0,0,0,28.11,11.65,15.73,15.73,0,0,0,4.87-11.65,16.56,16.56,0,0,0-16.49-16.49A15.74,15.74,0,0,0,813.21,1592.18Z"/></g><g class="cls-2"><path class="cls-3" d="M874.49,1632.15l-24.41-55.35H861.6l12.86,29.66,12.89-29.66H899Z"/><path class="cls-3" d="M903.7,1576.8h10.88v54.14H903.7Z"/><path class="cls-3" d="M932.14,1576.8v24l13.88-24h12.56l-16,27.51,18.6,26.63H947.93l-15.79-22.7v22.7H921.3V1576.8Z"/><path class="cls-3" d="M998.5,1576.67v10.85H976.74v10.91h16.32v10.85H976.74v10.91H998.5V1631H965.86v-54.34Z"/><path class="cls-3" d="M1018.28,1620.28c3,0,6.32-2.49,6.32-5.5,0-4.94-6.63-5.63-10.37-6.93-6.6-2.25-12.43-7.67-12.43-15a16.52,16.52,0,0,1,32.87-2.28l-10.81,2.28a5.49,5.49,0,0,0-11,0c0,4.88,6.17,6.18,9.93,7.29,6.84,2,12.86,7.18,12.86,14.72,0,9.13-8.19,16.5-17.31,16.5-8.37,0-15.94-6.14-17.17-14.2l10.8-2.3c0,3,3.29,5.48,6.34,5.48Z"/><path class="cls-3" d="M1040,1625.73a7,7,0,1,1,7,6.92A7,7,0,0,1,1040,1625.73Z"/></g><g class="cls-2"><path class="cls-3" d="M1085.75,1631.31a27.47,27.47,0,0,1,0-54.94l0,.13a28,28,0,0,1,19.48,8l-7.76,7.75a16.06,16.06,0,0,0-11.66-4.83,15.72,15.72,0,0,0-11.62,4.83,16.06,16.06,0,0,0-4.83,11.66,16.48,16.48,0,0,0,28.14,11.62l7.76,7.76A27.34,27.34,0,0,1,1085.75,1631.31Z"/></g><g class="cls-2"><path class="cls-3" d="M1150.66,1584.46a27.33,27.33,0,1,1-19.41-8.09A26.51,26.51,0,0,1,1150.66,1584.46Zm-31.07,7.72a16.06,16.06,0,0,0-4.83,11.66,16.49,16.49,0,1,0,4.83-11.66Z"/><path class="cls-3" d="M1189.91,1611.9l26.5-36.37v55.41h-10.88v-22.43l-15.62,21.56-15.65-21.56v22.43h-10.88v-55.41Z"/><path class="cls-3" d="M1293.4,1569.88v67.95h-6.49v-67.95Z"/><path class="cls-3" d="M1516.19,1619a13.31,13.31,0,0,1-9.74-4.33,14,14,0,0,1-4.33-10.38,15.37,15.37,0,0,1,3.91-10.1,12.17,12.17,0,0,1,9.66-4.64,10.44,10.44,0,0,1,3.41.84,5.24,5.24,0,0,1,2.94,2.25v-3.12h9.17l.06,20.69c0,2.08.48,3.49,1.43,4.24a3,3,0,0,0,2.64.79,7.26,7.26,0,0,0,5-5,20.32,20.32,0,0,0,1.48-6.84q0-10.58-6.65-17.19c-4.17-4.13-9.92-6.52-17.57-6.52l.14,0q-10.48,0-17.36,6.82t-6.89,17.39q0,10.58,6.92,17.33t17.33,6.82c3.85,0,8.15-.1,10.91-1.34l3.7,9.57c-4.28,2-8.71,2-14.61,2q-14.85,0-24.75-9.74t-9.88-24.61q0-14.74,9.84-24.66a33.74,33.74,0,0,1,24.76-10c11,0,18.89,3.66,24.88,9.57s9.64,13.75,9.64,24.66a25.4,25.4,0,0,1-5,15.28q-5,6.81-14.36,6.14c-5.37-.36-8.73-3.67-10.28-8.36C1521.48,1618.31,1518.84,1619,1516.19,1619Zm.71-19.84-.07,0a5.22,5.22,0,0,0-5.14,5.17,5.16,5.16,0,0,0,5.18,5.24c3.15,0,5.12-1.87,5.2-5.17A4.91,4.91,0,0,0,1516.9,1599.14Z"/><path class="cls-3" d="M1557.25,1576.8h17.67a19.88,19.88,0,0,1,14.17,5.51c3.3,3.3,5.24,6.3,5.24,12.29V1596a17.53,17.53,0,0,1-3.42,10.31,12.33,12.33,0,0,1-6.49,5l12.6,19.61h-13.3l-15.55-24v24h-10.88Zm25.86,18.14a7.32,7.32,0,0,0-2.14-5.21c-1.42-1.37-4.1-2.15-6.72-2.15h-6.11v15h4.19v0H1576A7.43,7.43,0,0,0,1583.11,1594.94Z"/><path class="cls-3" d="M1646.55,1584.46a27.34,27.34,0,1,1-19.41-8.09A26.55,26.55,0,0,1,1646.55,1584.46Zm-31.07,7.72a16.06,16.06,0,0,0-4.83,11.66,16.49,16.49,0,1,0,4.83-11.66Z"/><path class="cls-3" d="M1687.17,1599.1a19.11,19.11,0,0,1,4.17,2.76,17.09,17.09,0,0,1,0,24,16.12,16.12,0,0,1-12,5h-20.11V1576.8h15.11a14.6,14.6,0,0,1,10.75,4.5,14.24,14.24,0,0,1,4.3,10.31A17.14,17.14,0,0,1,1687.17,1599.1Zm-12.79-11.72h-4.27v9.91c1,0,2.32-.14,4.07-.27a5.11,5.11,0,0,0,4.77-5A4.66,4.66,0,0,0,1674.38,1587.38Zm11.28,26.5a6.75,6.75,0,0,0-6.28-6.65c-3.22-.18-6,0-9.27,0v13.13h9.27A6.34,6.34,0,0,0,1685.66,1613.88Z"/></g><g class="cls-2"><path class="cls-3" d="M1745.84,1584.46a27.34,27.34,0,1,1-19.42-8.09A26.55,26.55,0,0,1,1745.84,1584.46Zm-31.07,7.72a16.06,16.06,0,0,0-4.84,11.66,16.48,16.48,0,0,0,28.11,11.65,15.73,15.73,0,0,0,4.87-11.65,16.56,16.56,0,0,0-16.49-16.49A15.74,15.74,0,0,0,1714.77,1592.18Z"/></g><g class="cls-2"><path class="cls-3" d="M1776.05,1632.15l-24.41-55.35h11.52l12.86,29.66,12.9-29.66h11.65Z"/><path class="cls-3" d="M1805.26,1576.8h10.88v54.14h-10.88Z"/><path class="cls-3" d="M1833.71,1576.8v24l13.87-24h12.56l-16,27.51,18.6,26.63h-13.23l-15.78-22.7v22.7h-10.85V1576.8Z"/><path class="cls-3" d="M1900.06,1576.67v10.85H1878.3v10.91h16.32v10.85H1878.3v10.91h21.76V1631h-32.64v-54.34Z"/><path class="cls-3" d="M1919.84,1620.28c3,0,6.32-2.49,6.32-5.5,0-4.94-6.63-5.63-10.37-6.93-6.6-2.25-12.43-7.67-12.43-15a16.52,16.52,0,0,1,32.87-2.28l-10.81,2.28a5.49,5.49,0,0,0-11,0c0,4.88,6.17,6.18,9.93,7.29,6.84,2,12.86,7.18,12.86,14.72,0,9.13-8.19,16.5-17.31,16.5-8.37,0-15.94-6.14-17.17-14.2l10.8-2.3c0,3,3.29,5.48,6.34,5.48Z"/><path class="cls-3" d="M1965,1613.17a9.25,9.25,0,0,0-3.39-7c-2.27-2.05-5.52-3.17-9.78-3.37l2.29-4.5a11.53,11.53,0,0,0,6.21-2.81,6.19,6.19,0,0,0,2-4.41l-.1.06a4.41,4.41,0,0,0-4.37-4.36,4.31,4.31,0,0,0-4.26,3.46l-10.82-2.32a15.65,15.65,0,0,1,15.08-12.16,15.48,15.48,0,0,1,12.39,24.62,2.51,2.51,0,0,1,.37.3,17.28,17.28,0,0,1,0,25.12,17.59,17.59,0,0,1-12.76,5.14,18,18,0,0,1-11.08-3.69,17.06,17.06,0,0,1-6.48-9.71l10.68-2.72c.6,2.72,3.54,5,6.91,5A6.91,6.91,0,0,0,1965,1613.17Z"/><path class="cls-3" d="M2000.42,1576.5q9.67,0,15.49,8.19,5.61,7.8,5.6,19.15t-5.6,19.21q-5.85,8.16-15.49,8.16c-13.37,0-21.09-12.82-21.09-27.37S1987.1,1576.5,2000.42,1576.5Zm0,11a7.9,7.9,0,0,0-6.65,3.52c-2.37,3.39-3.56,7.67-3.56,12.87s1.19,9.55,3.56,12.86a8.06,8.06,0,0,0,13.33,0q3.53-4.93,3.53-12.86t-3.53-12.87A7.93,7.93,0,0,0,2000.39,1587.45Z"/><path class="cls-3" d="M2054.65,1576.87l-9.4,16.35a19.19,19.19,0,0,1,12.56,6,18.35,18.35,0,0,1,5.14,13,18.11,18.11,0,0,1-5.61,13.43,18.45,18.45,0,0,1-13.47,5.51,18.91,18.91,0,0,1-19-18.94,19.52,19.52,0,0,1,2.33-9.15c.27-.51.75-1.5,1-1.87l14.07-24.38Zm-2.48,35.3a8.28,8.28,0,0,0-8.2-8.2l0,0a8.16,8.16,0,1,0,8.23,8.16Z"/><path class="cls-3" d="M2103.31,1576.8l-17.16,54.34h-11.42l13.6-43.72h-22V1576.8Z"/><path class="cls-3" d="M2158.48,1569.88v67.95H2152v-67.95Z"/><path class="cls-3" d="M2381.27,1619a13.31,13.31,0,0,1-9.74-4.33,14,14,0,0,1-4.33-10.38,15.37,15.37,0,0,1,3.91-10.1,12.17,12.17,0,0,1,9.66-4.64,10.44,10.44,0,0,1,3.41.84,5.2,5.2,0,0,1,2.94,2.25v-3.12h9.17l.06,20.69c0,2.08.48,3.49,1.43,4.24a3,3,0,0,0,2.64.79,7.26,7.26,0,0,0,5-5,20.32,20.32,0,0,0,1.48-6.84q0-10.58-6.65-17.19c-4.17-4.13-9.92-6.52-17.57-6.52l.14,0q-10.49,0-17.36,6.82t-6.89,17.39q0,10.58,6.92,17.33t17.33,6.82c3.85,0,8.15-.1,10.91-1.34l3.7,9.57c-4.28,2-8.71,2-14.61,2q-14.85,0-24.75-9.74t-9.88-24.61q0-14.74,9.84-24.66a33.74,33.74,0,0,1,24.76-10c10.95,0,18.89,3.66,24.88,9.57s9.64,13.75,9.64,24.66a25.4,25.4,0,0,1-4.95,15.28q-5,6.81-14.36,6.14c-5.37-.36-8.73-3.67-10.28-8.36C2386.56,1618.31,2383.92,1619,2381.27,1619Zm.71-19.84-.07,0a5.22,5.22,0,0,0-5.14,5.17,5.16,5.16,0,0,0,5.18,5.24c3.15,0,5.12-1.87,5.2-5.17A4.91,4.91,0,0,0,2382,1599.14Z"/><path class="cls-3" d="M2447.79,1576.47a27.68,27.68,0,0,1,19.45,8l-7.76,7.76a16,16,0,0,0-11.62-4.87,15.7,15.7,0,0,0-11.62,4.87,16.45,16.45,0,0,0,0,23.31,15.71,15.71,0,0,0,11.62,4.83,16.42,16.42,0,0,0,14.84-9.47h-15.45v-10.37h27.81c.78,10.11-2.54,17.46-7.89,22.77a26.6,26.6,0,0,1-19.41,8,27.45,27.45,0,0,1-27.44-27.43,26.66,26.66,0,0,1,8.06-19.45,26.21,26.21,0,0,1,19.38-8.09Z"/><path class="cls-3" d="M2512.5,1576.67v10.85h-21.76v10.91h16.32v10.85h-16.32v10.91h21.76V1631h-32.65v-54.34Z"/><path class="cls-3" d="M2549.8,1606.73v-30.06h10.92v55.38l-32.64-31.1V1631h-10.89v-55.35Z"/><path class="cls-3" d="M2600.07,1576.67v10.85h-21.76v10.91h16.32v10.85h-16.32v10.91h21.76V1631h-32.64v-54.34Z"/></g><g class="cls-2"><path class="cls-3" d="M2627.16,1632.15l-24.41-55.35h11.52l12.86,29.66L2640,1576.8h11.66Z"/></g><g class="cls-2"><path class="cls-3" d="M2662.73,1575.69l24.72,55.25h-11.79l-3.66-8.23h-18.54l-3.66,8.23h-11.75Zm5,37.42-4.94-11.46-5,11.46Z"/><path class="cls-3" d="M2692.14,1576.8h17.67a19.9,19.9,0,0,1,14.17,5.51c3.3,3.3,5.24,6.3,5.24,12.29V1596a17.47,17.47,0,0,1-3.43,10.31,12.27,12.27,0,0,1-6.48,5l12.6,19.61h-13.3l-15.55-24v24h-10.89Zm25.86,18.14a7.29,7.29,0,0,0-2.15-5.21c-1.41-1.37-4.09-2.15-6.71-2.15H2703v15h4.2v0h3.63A7.44,7.44,0,0,0,2718,1594.94Z"/><path class="cls-3" d="M2781.44,1584.46a27.34,27.34,0,1,1-19.42-8.09A26.55,26.55,0,0,1,2781.44,1584.46Zm-31.07,7.72a16.06,16.06,0,0,0-4.84,11.66,16.48,16.48,0,0,0,28.11,11.65,15.73,15.73,0,0,0,4.87-11.65,16.56,16.56,0,0,0-16.49-16.49A15.74,15.74,0,0,0,2750.37,1592.18Z"/><path class="cls-3" d="M2822.06,1599.1a19.35,19.35,0,0,1,4.17,2.76,17.12,17.12,0,0,1,0,24,16.12,16.12,0,0,1-12,5h-20.12V1576.8h15.12a14.58,14.58,0,0,1,10.74,4.5,14.2,14.2,0,0,1,4.3,10.31A17.27,17.27,0,0,1,2822.06,1599.1Zm-12.79-11.72H2805v9.91c1,0,2.32-.14,4.06-.27a5.11,5.11,0,0,0,4.77-5A4.65,4.65,0,0,0,2809.27,1587.38Zm11.28,26.5a6.75,6.75,0,0,0-6.28-6.65c-3.22-.18-6,0-9.27,0v13.13h9.27A6.35,6.35,0,0,0,2820.55,1613.88Z"/></g><g class="cls-2"><path class="cls-3" d="M2880.73,1584.46a27.33,27.33,0,1,1-19.41-8.09A26.52,26.52,0,0,1,2880.73,1584.46Zm-31.06,7.72a16,16,0,0,0-4.84,11.66,16.51,16.51,0,1,0,4.84-11.66Z"/></g><g class="cls-2"><path class="cls-3" d="M2911,1632.15l-24.42-55.35h11.52l12.86,29.66,12.9-29.66h11.65Z"/><path class="cls-3" d="M2940.16,1576.8H2951v54.14h-10.88Z"/><path class="cls-3" d="M2968.6,1576.8v24l13.87-24H2995l-16,27.51,18.61,26.63h-13.24l-15.78-22.7v22.7h-10.85V1576.8Z"/><path class="cls-3" d="M3035,1576.67v10.85h-21.77v10.91h16.32v10.85h-16.32v10.91H3035V1631h-32.65v-54.34Z"/><path class="cls-3" d="M3054.74,1620.28c3,0,6.32-2.49,6.32-5.5,0-4.94-6.63-5.63-10.38-6.93-6.6-2.25-12.43-7.67-12.43-15a16.52,16.52,0,0,1,32.88-2.28l-10.81,2.28a5.5,5.5,0,0,0-11,0c0,4.88,6.18,6.18,9.94,7.29,6.83,2,12.86,7.18,12.86,14.72,0,9.13-8.2,16.5-17.31,16.5-8.37,0-15.94-6.14-17.18-14.2l10.81-2.3c0,3,3.28,5.48,6.34,5.48Z"/></g></g><g id="Logo_FIXED" data-name="Logo FIXED"><path class="cls-3" d="M1381.56,1635.52c28.77,0,44.51-23.83,44.51-44.48v-1.91a32.24,32.24,0,0,0,7.81-8.12,32.32,32.32,0,0,1-9,2.46,15.79,15.79,0,0,0,6.9-8.65,31.54,31.54,0,0,1-10,3.82,15.64,15.64,0,0,0-27,10.7,16.55,16.55,0,0,0,.4,3.57,44.49,44.49,0,0,1-32.25-16.35,15.72,15.72,0,0,0,4.84,20.76,16,16,0,0,1-7.07-1.91v.21a15.65,15.65,0,0,0,12.53,15.28,15.52,15.52,0,0,1-4.13.56,15.06,15.06,0,0,1-2.92-.29,15.67,15.67,0,0,0,14.61,10.87,31.37,31.37,0,0,1-19.42,6.7,29.05,29.05,0,0,1-3.73-.21,44.53,44.53,0,0,0,23.94,7"/></g><path class="cls-3" d="M2268.47,1638.07h-25.58a1.55,1.55,0,0,0-.29-.14c-1.79-.13-3.59-.21-5.37-.44a18.27,18.27,0,0,1-6.15-1.91,17.84,17.84,0,0,1-8.36-9.26,25.56,25.56,0,0,1-1.69-9.55,2.45,2.45,0,0,0-.13-.61v-25.79a1.66,1.66,0,0,0,.13-.27,18.36,18.36,0,0,1,.16-2.94,31.27,31.27,0,0,1,.61-4.09,18,18,0,0,1,11.46-13,27.43,27.43,0,0,1,9.42-1.51,6.17,6.17,0,0,0,.84-.15h24.6a.66.66,0,0,0,.27.13,17.81,17.81,0,0,1,3.09.18,24.23,24.23,0,0,1,3.71.43,18.11,18.11,0,0,1,13.94,11.94,28.28,28.28,0,0,1,1.4,9.17,4.38,4.38,0,0,0,.13.82v24.34a3.52,3.52,0,0,0-.15.42c-.13,1.91-.21,3.82-.42,5.73a18.67,18.67,0,0,1-1.6,5.48,17.66,17.66,0,0,1-4.65,6.21,17.39,17.39,0,0,1-4.66,2.89,25.36,25.36,0,0,1-10,1.91A2.57,2.57,0,0,0,2268.47,1638.07Zm15.76-46.92h0c0-.82-.16-1.64-.18-2.46a20.28,20.28,0,0,0-.84-5,11.45,11.45,0,0,0-5.61-7,14.92,14.92,0,0,0-6.23-1.68c-2.1-.18-4.2-.29-6.3-.29-6.73,0-13.38,0-20.16.13q-3.1.06-6.21.42a12.09,12.09,0,0,0-8,4.13,11,11,0,0,0-2.64,5.48,54.74,54.74,0,0,0-.7,8.08v21.89a33.31,33.31,0,0,0,.57,6.46,11.76,11.76,0,0,0,9,9.55,34.51,34.51,0,0,0,8.54.8c7.64,0,15.28,0,22.77-.11a26.54,26.54,0,0,0,6.15-.69,11.46,11.46,0,0,0,7.94-6.11,15.56,15.56,0,0,0,1.57-6c.19-2.12.29-4.26.29-6.38C2284.24,1605.32,2284.23,1598.24,2284.23,1591.15Z"/><path class="cls-3" d="M2255.76,1621.2a18,18,0,1,1,17.93-18c0,.16,0,.31,0,.47A17.91,17.91,0,0,1,2255.76,1621.2Zm11.46-18a11.53,11.53,0,1,0-11.52,11.53A11.52,11.52,0,0,0,2267.22,1603.2Z"/><path class="cls-3" d="M2274.31,1588.86a4.22,4.22,0,0,1-4.24-4.2v-.22a4.41,4.41,0,0,1,4.34-4,4.33,4.33,0,0,1,4.16,4.37A4.2,4.2,0,0,1,2274.31,1588.86Z"/><path class="cls-4" d="M879.6,1071.58C736.94,1258.21,566.54,1332,478.45,1281.14c-17.07-9.86-51.15-36-68.52-111.38q-13.71,84.51-27.39,169l26.19-30.71,70.45,144.87,183.62-88L667,1401.3l171.23-144.16Q858.91,1164.36,879.6,1071.58Z"/><path class="cls-4" d="M400.22,992.19A266,266,0,0,0,454,1024.81c81.3,36.9,192.47,36.59,281.7-9.54,56.69-29.32,80.08-64.49,109.59-53.53,24.86,9.25,35.08,44.38,39.81,73.76l4.42-132.77A680.42,680.42,0,0,1,756.73,958c-68,20.12-145.3,42.25-232.85,17.57a301.08,301.08,0,0,1-67.65-28.43A48.67,48.67,0,0,1,440,981.46C423.21,996.09,402.81,992.65,400.22,992.19Z"/><path class="cls-4" d="M459.25,918.87a316.31,316.31,0,0,0,71.31,27.69c87.53,22.17,163,.53,226.51-18.48a663.78,663.78,0,0,0,132.3-56c-72.68-7.15-118.71-36-118.31-60.53.47-27.71,60.19-48,65.33-49.69C733.8,708.25,616.57,715,539.67,778.71,481.71,826.61,464.62,891.9,459.25,918.87Z"/><path class="cls-3" d="M917.91,853.33c17.47-17.81,40.88-47.19,47.86-87.21,11.61-66.44-33.51-96.45-43.37-164.78-13.3-92.22,56.33-125.94,80.78-235.52,12.16-54.52,15.53-138.65-37.41-255.25,21.18,110.64,6.89,190.87-10.41,244.06-37.81,116.31-106.2,153.21-95.55,247.2,7.46,66,47.46,103.26,24.38,145.41-22.28,40.68-81,43.54-78,64.87,2.67,19,45.81,30.18,63.58,34.83A196.3,196.3,0,0,0,917.91,853.33Z"/><path class="cls-3" d="M520.93,758.5a201.38,201.38,0,0,0-63.22,77.17c-17.89-19.16-41.26-50.37-44.76-91-5-58.42,36.39-81.33,50.41-139.09,21.91-90.47-47.82-136-66.51-244.46-9.8-56.9-7.13-139.94,52-250.3-27.74,108.87-17.79,188.86-3.67,241.68,31.49,117.65,100.25,167.69,78.52,257.1-11.21,46.16-51.06,86.3-32.09,122.78C498.83,746,511.34,753.94,520.93,758.5Z"/><rect class="cls-4" x="1249.33" y="251.48" width="1862.63" height="1060.55" transform="translate(-96.34 355.52) rotate(-9.12)"/><g class="cls-2"><path class="cls-3" d="M1559.65,920.51v30.2h-60.6v30.4h45.45v30.2h-45.45v60.51h-30.3V920.51Z"/><path class="cls-3" d="M1572.75,920.88H1622c16.78,0,30.35,6.34,39.46,15.34,9.18,9.18,14.59,17.55,14.59,34.23v3.92q0,15.25-9.54,28.71c-5.29,7.42-9.49,10.57-18,13.94l35.07,54.62h-37l-43.3-66.68v66.68h-30.3Zm72,50.5a20.33,20.33,0,0,0-6-14.49c-3.93-3.83-11.4-6-18.7-6h-17v41.62h11.7v.09h10.1C1635.89,992.61,1644.77,982.87,1644.77,971.38Z"/><path class="cls-3" d="M1767.29,1072.66q-31.62-.09-54-22.25-22.45-22.46-22.45-54.06t22.45-54.15q22.53-22.53,54-22.54l-.1.38c23.28,0,41.79,10.34,54.25,22.35L1799.83,964a44.61,44.61,0,0,0-32.45-13.46A43.72,43.72,0,0,0,1735,964a45.83,45.83,0,0,0,0,64.91,46,46,0,0,0,64.91-.1l21.6,21.61A76.14,76.14,0,0,1,1767.29,1072.66Z"/><path class="cls-3" d="M1989.7,920.88v30h-37v120.74h-30.39V950.9h-37.13v-30Z"/><path class="cls-3" d="M2093.7,920.51v30.2h-60.6v30.4h45.45v30.2H2033.1v30.4h60.6v30.11h-90.9V920.51Z"/><path class="cls-3" d="M2169.93,917.79l68.83,153.85h-32.83l-10.19-22.92h-51.63l-10.19,22.92h-32.73ZM2183.77,1022,2170,990.08l-13.94,31.9Z"/><path class="cls-3" d="M2325.74,1018.61l73.79-101.28v154.31h-30.3v-62.48l-43.49,60-43.58-60v62.48h-30.3V917.33Z"/><path class="cls-3" d="M2538.61,1022.16q0-10.93-9.44-19.5t-27.22-9.4l6.36-12.53q11.88-2.24,17.3-7.81t5.43-12.29l-.28.18a12.29,12.29,0,0,0-12.16-12.15,12,12,0,0,0-11.88,9.63l-30.11-6.46c3.94-18,20.63-33.85,42-33.85a43.1,43.1,0,0,1,34.51,68.55c.5.38.84.66,1,.84q15.06,14.5,15.06,35t-15.06,35a49.06,49.06,0,0,1-35.54,14.31,50,50,0,0,1-30.86-10.29,47.61,47.61,0,0,1-18-27l29.74-7.57c1.69,7.58,9.88,14,19.26,14C2529.38,1040.77,2538.61,1032.86,2538.61,1022.16Z"/><path class="cls-3" d="M2637.29,920q26.92,0,43.11,22.82,15.61,21.69,15.62,53.3,0,31.8-15.62,53.5-16.28,22.72-43.11,22.72c-37.23,0-58.74-35.7-58.74-76.22S2600.19,920,2637.29,920Zm-.1,30.49q-11.31,0-18.51,9.82-9.91,14.11-9.92,35.81,0,22,9.92,35.82,7.2,9.82,18.51,9.82t18.61-9.82q9.82-13.74,9.82-35.82,0-21.87-9.82-35.81Q2648.6,950.52,2637.19,950.53Z"/><path class="cls-3" d="M2788.33,921.07l-26.18,45.54a53.5,53.5,0,0,1,35,16.74,51.2,51.2,0,0,1,14.31,36.1,50.41,50.41,0,0,1-15.62,37.41,51.43,51.43,0,0,1-37.5,15.34q-22.07,0-37.41-15.34-15.53-15.34-15.52-37.41a54.51,54.51,0,0,1,6.5-25.48c.75-1.42,2.08-4.18,2.76-5.19l39.18-67.9Zm-6.92,98.29a23.05,23.05,0,0,0-22.82-22.82l-.09.09a22.73,22.73,0,1,0,22.91,22.73Z"/><path class="cls-3" d="M2923.85,920.88l-47.79,151.32h-31.79l37.87-121.77h-61.35V920.88Z"/></g><g class="cls-2"><g class="cls-2"><path class="cls-3" d="M1287.89,558.21h82c28,0,50.61,10.56,65.79,25.56C1451,599.07,1460,613,1460,640.83v6.55q0,25.39-15.9,47.85c-8.82,12.36-15.81,17.61-30.08,23.23l58.46,91h-61.73l-72.18-111.14V809.49H1288Zm120,84.18q0-13.73-10-24.16c-6.55-6.38-19-10-31.17-10H1338.4v69.37h19.48v.15h16.84C1393.12,677.77,1407.92,661.54,1407.92,642.39Z"/><path class="cls-3" d="M1702.38,593.75Q1739.94,631.32,1740,684q0,52.85-37.57,90.1-37.41,37.1-90.1,37.1-52.85-.15-90.1-37.1-37.41-37.41-37.41-90.1,0-52.53,37.41-90.26,37.56-37.56,90.1-37.57T1702.38,593.75ZM1558.19,629.6q-22.45,22.77-22.45,54.1,0,31.63,22.45,54.09,22.29,22.29,54.09,22.29,31.34,0,53.93-22.29t22.61-54.09q0-31.5-22.61-54.1-22.44-22.44-53.93-22.44Q1580.32,607.16,1558.19,629.6Z"/><path class="cls-3" d="M1891,661.72c6.14,3.07,14.6,8.24,19.33,12.78q22.92,23.22,22.92,55.81t-22.92,55.8q-22.9,23.39-55.49,23.38h-93.38V558.21h70.15q29.16,0,49.88,20.89,20,20.26,20,47.86C1901.44,639,1895.64,653.45,1891,661.72Zm-59.39-54.41h-19.8v46q6.71-.31,18.87-1.25c11.95-1.35,22.13-10.29,22.13-23.07C1852.8,617.33,1843.35,607.31,1831.6,607.31Zm52.38,123c0-16.7-13.6-29.83-29.15-30.87-15-.82-27.91-.15-43-.15v61h43C1871.22,760.24,1884,746.7,1884,730.31Z"/><path class="cls-3" d="M2163.32,593.75q37.56,37.57,37.56,90.26,0,52.85-37.56,90.1-37.41,37.1-90.1,37.1-52.84-.15-90.1-37.1Q1945.7,736.7,1945.7,684q0-52.53,37.42-90.26,37.56-37.56,90.1-37.57T2163.32,593.75Zm-144.2,35.85q-22.44,22.77-22.44,54.1,0,31.63,22.44,54.09,22.31,22.29,54.1,22.29,31.32,0,53.93-22.29t22.6-54.09q0-31.5-22.6-54.1-22.44-22.44-53.93-22.44Q2041.26,607.16,2019.12,629.6Z"/><path class="cls-3" d="M2303.61,815.11l-113.33-256.9h53.47l59.7,137.65,59.86-137.65h54.09Z"/><path class="cls-3" d="M2439.22,558.21h50.51V809.49h-50.51Z"/><path class="cls-3" d="M2571.25,558.21V669.35l64.38-111.14h58.3l-74.35,127.67,86.35,123.61h-61.41l-73.27-105.37V809.49H2520.9V558.21Z"/><path class="cls-3" d="M2879.27,557.59v50.35h-101V658.6H2854V709h-75.76v50.66h101v50.2H2727.75V557.59Z"/><path class="cls-3" d="M2971.12,760c14,0,29.34-11.59,29.34-25.54,0-22.94-30.79-26.14-48.17-32.16-30.63-10.44-57.69-35.59-57.69-69.81a76.67,76.67,0,0,1,152.58-10.6L2997,632.52a25.5,25.5,0,0,0-51,.15c0,22.64,28.66,28.66,46.12,33.84,31.7,9.15,59.67,33.31,59.67,68.29,0,42.38-38,76.6-80.33,76.6-38.87,0-74-28.51-79.72-65.93l50.15-10.67c0,14,15.24,25.46,29.42,25.46Z"/></g></g></svg>