<svg id="Layer_2" data-name="Layer 2" xmlns="http://www.w3.org/2000/svg" viewBox="0 0 129.9 270.14"><defs><style>.cls-1{fill:#0c0d18;}.cls-2{fill:#036498;}.cls-3{fill:#006498;}.cls-4{fill:#e0e0e0;}.cls-5{fill:none;stroke:#e0e0e0;stroke-miterlimit:10;}</style></defs><title>robovike_on_white</title><path class="cls-1" d="M213.44,72.87c-4.27,17.51-15.37,22.46-14.5,39.58.75,15,9.54,17.49,8.19,30.55-1.6,15.63-16.17,31.16-28.43,30.1a14.79,14.79,0,0,1-11.43-22.87c3.72-5.83,9.44-4.25,12.7-8.91,4.3-6.12-1.67-14.41-3.7-24-3.84-18.1,9.64-25.88,16.91-51.27C201.8,36,192.1,14.88,195.91,14,200.46,13,220.56,43.64,213.44,72.87Z" transform="translate(-85.05 -13.97)"/><path class="cls-1" d="M118.86,165.64c7-3,11.43-12.2,9.14-18.55a12.2,12.2,0,0,0-2.86-4.36c-2.75-2.55-5.22-2-6.6-3.28-3.52-3.16,3.92-14.41,5.94-22.7,4.61-19-9.38-26-14.53-47.56-6.72-28.24,2.83-51.27-2.1-52.67-1.36-.38-3.76.91-8.3,8.35C88.62,45.28,88.12,60.64,89.93,71.16c3.46,20.07,16.35,28.49,12.3,45.22-3,12.56-10.23,14.42-9.32,25.73s10,23.67,19.65,24.56A13,13,0,0,0,118.86,165.64Z" transform="translate(-85.05 -13.97)"/><path class="cls-1" d="M191.31,199.69l-8.6-1.53c-.46-3.53-1.55-8-4.6-9.21-4.08-1.64-9.48,3.36-12.06,5.46-18.12,14.74-54.42,14.56-73.25-.19a39.91,39.91,0,0,1-7.75-8.13c4.32.64,10.07.73,13.77-2.73,4.19-3.91,2.36-9.23,4.63-17.52,3.25-11.83,11.81-19.18,15-21.53a56.32,56.32,0,0,1,27.17-10.79C170.79,131,189.12,148,192.23,151Q191.77,175.36,191.31,199.69Z" transform="translate(-85.05 -13.97)"/><path class="cls-1" d="M113.07,239.48c9.32,4.57,20.06-.16,27.31-3.48,20.69-9.47,34.53-26.27,42.33-37.84l8.6,1.53q-5.26,20.57-10.54,41.12l-40,35-1-8.73-32.26,17L94.32,259.05l-9.14,7.63L95,195.79l5,2.93a54.79,54.79,0,0,0-1,9.05c-.15,5.92-.39,15.23,5.22,23.42A23.63,23.63,0,0,0,113.07,239.48Z" transform="translate(-85.05 -13.97)"/><path class="cls-2" d="M185.26,203.47c-27.1,36-59.16,50-76.35,40.45-3.39-1.9-9.73-6.72-13.35-20.31l-4.14,31.55,4.69-5.85L110,275.83l33.62-17.39,1,6.75,31-27.75Z" transform="translate(-85.05 -13.97)"/><path class="cls-3" d="M93.91,189.36a67.82,67.82,0,0,0,30,9.82c5.6.43,22.2,1.7,37.36-7.63,8.39-5.17,12.32-11.1,17.11-9.66,4.44,1.34,6.4,8,7.36,13.63q.42-12.26.82-24.53A125.18,125.18,0,0,1,162,181.21c-11.75,3.48-26.29,7.57-43.06,3.25a60.57,60.57,0,0,1-12.52-4.76,11.18,11.18,0,0,1-5,8.4A10.72,10.72,0,0,1,93.91,189.36Z" transform="translate(-85.05 -13.97)"/><path class="cls-3" d="M107,174a58.52,58.52,0,0,0,13.19,5.12c16.18,4.1,30.15.1,41.88-3.42a122.19,122.19,0,0,0,24.47-10.36c-13.44-1.32-22-6.66-21.88-11.19.09-5.13,11.13-8.88,12.07-9.19-19-9.91-40.65-8.66-54.88,3.12C111.16,156.91,108,169,107,174Z" transform="translate(-85.05 -13.97)"/><path class="cls-4" d="M191.83,161.84c3.23-3.29,7.56-8.72,8.85-16.12,2.14-12.29-6.2-17.84-8-30.47C190.2,98.17,203.07,92,207.59,71.7c2.25-10.08,2.88-25.64-6.91-47.2C204.59,45,202,59.8,198.75,69.63c-7,21.51-19.64,28.34-17.67,45.72,1.38,12.2,8.78,19.09,4.51,26.88-4.12,7.52-15,8.05-14.42,12,.5,3.49,8.48,5.58,11.76,6.44A36,36,0,0,0,191.83,161.84Z" transform="translate(-85.05 -13.97)"/><path class="cls-4" d="M118.42,144.31a37.25,37.25,0,0,0-11.69,14.27c-3.31-3.54-7.63-9.31-8.28-16.84-.93-10.8,6.73-15,9.32-25.73,4-16.74-8.84-25.15-12.3-45.22-1.81-10.53-1.31-25.88,9.62-46.29-5.13,20.13-3.29,34.93-.68,44.69,5.82,21.76,18.54,31,14.52,47.56-2.07,8.54-9.44,16-5.93,22.7A11.4,11.4,0,0,0,118.42,144.31Z" transform="translate(-85.05 -13.97)"/><path class="cls-3" d="M110.92,178.52" transform="translate(-85.05 -13.97)"/><path class="cls-3" d="M71.48,149.24" transform="translate(-85.05 -13.97)"/><path class="cls-5" d="M172,137.45" transform="translate(-85.05 -13.97)"/></svg>