<svg xmlns="http://www.w3.org/2000/svg" viewBox="0 0 489.91 336.45"><defs><style>.cls-1{fill:#0c0d18;}.cls-2{fill:#006497;}.cls-3,.cls-4{fill:#e0e0e0;}.cls-4{font-size:48px;font-family:LemonMilk, "Lemon/Milk";}</style></defs><title>robovike_w_text</title><g id="Layer_3" data-name="Layer 3"><rect class="cls-1" y="36.45" width="489.91" height="300"/></g><g id="Layer_2" data-name="Layer 2"><text y="36.45"/><path class="cls-2" d="M286.61,205.39c-27.27,35.67-59.84,49.78-76.68,40.06-3.26-1.89-9.77-6.89-13.09-21.29q-2.62,16.16-5.24,32.3l5-5.86,13.47,27.68,35.09-16.82.82,7,32.71-27.56Q282.66,223.13,286.61,205.39Z" transform="translate(0 36.45)"/><path class="cls-2" d="M195,190.22a51,51,0,0,0,10.27,6.23c15.54,7.06,36.79,7,53.85-1.82C269.94,189,274.41,182.3,280,184.4c4.75,1.76,6.7,8.48,7.6,14.09q.44-12.69.85-25.37a129.55,129.55,0,0,1-25.36,10.57c-13,3.85-27.78,8.08-44.51,3.36a57.54,57.54,0,0,1-12.93-5.43,9.3,9.3,0,0,1-3.1,6.55A9.44,9.44,0,0,1,195,190.22Z" transform="translate(0 36.45)"/><path class="cls-2" d="M206.26,176.2a60.39,60.39,0,0,0,13.63,5.3c16.73,4.23,31.17.1,43.3-3.54a126,126,0,0,0,25.29-10.71c-13.89-1.36-22.69-6.88-22.62-11.56.09-5.3,11.51-9.18,12.47-9.5-19.6-10.24-42-8.95-56.71,3.22C210.56,158.57,207.29,171.05,206.26,176.2Z" transform="translate(0 36.45)"/><path class="cls-3" d="M293.93,163.67c3.34-3.4,7.81-9,9.15-16.66,2.22-12.7-6.41-18.44-8.29-31.5-2.54-17.65,10.77-24.07,15.44-45,2.32-10.42,3-26.5-7.15-48.78,4.05,21.14,1.32,36.48-2,46.64-7.23,22.24-20.3,29.29-18.26,47.26,1.42,12.61,9.07,19.73,4.66,27.78-4.26,7.78-15.48,8.32-14.9,12.4.51,3.61,8.75,5.77,12.15,6.66A37.63,37.63,0,0,0,293.93,163.67Z" transform="translate(0 36.45)"/><path class="cls-3" d="M218.06,145.55A38.25,38.25,0,0,0,206,160.3c-3.42-3.66-7.88-9.63-8.55-17.4-1-11.17,7-15.54,9.63-26.6,4.19-17.3-9.14-26-12.71-46.74-1.87-10.88-1.36-26.75,9.94-47.84-5.3,20.81-3.4,36.09-.7,46.19,6,22.49,19.16,32.05,15,49.16-2.14,8.82-9.76,16.49-6.13,23.46A11.79,11.79,0,0,0,218.06,145.55Z" transform="translate(0 36.45)"/><text class="cls-4" transform="translate(30.82 208.7)">ROBO</text><text y="36.45"/><text class="cls-4" transform="translate(327.68 208.7)">VIKES</text></g></svg>