<svg id="Layer_2" data-name="Layer 2" xmlns="http://www.w3.org/2000/svg" xmlns:xlink="http://www.w3.org/1999/xlink" viewBox="0 0 120.06 256.57"><defs><style>.cls-1{fill:none;}.cls-2{fill:#f6eb0f;}.cls-3{fill:url(#New_Pattern_Swatch_3);}</style><pattern id="New_Pattern_Swatch_3" data-name="New Pattern Swatch 3" width="117.98" height="117.98" patternTransform="translate(124.94 125.89) scale(0.19)" patternUnits="userSpaceOnUse" viewBox="0 0 117.98 117.98"><rect class="cls-1" width="117.98" height="117.98"/><rect class="cls-2" width="117.98" height="117.98"/><polygon class="cls-1" points="43.19 0 0 43.19 0 55.13 55.13 0 43.19 0"/><polygon class="cls-1" points="82.52 0 0 82.52 0 94.46 94.46 0 82.52 0"/><polygon class="cls-1" points="23.52 0 0 23.52 0 35.47 35.47 0 23.52 0"/><polygon class="cls-1" points="15.81 117.98 117.98 15.81 117.98 3.86 3.86 117.98 15.81 117.98"/><polygon class="cls-1" points="3.86 0 0 3.86 0 15.81 15.81 0 3.86 0"/><polygon class="cls-1" points="114.13 117.98 117.98 114.13 117.98 102.18 102.18 117.98 114.13 117.98"/><polygon class="cls-1" points="102.18 0 0 102.18 0 114.13 114.13 0 102.18 0"/><polygon class="cls-1" points="74.8 117.98 117.98 74.8 117.98 62.85 62.85 117.98 74.8 117.98"/><polygon class="cls-1" points="94.46 117.98 117.98 94.46 117.98 82.52 82.52 117.98 94.46 117.98"/><polygon class="cls-1" points="55.13 117.98 117.98 55.13 117.98 43.19 43.19 117.98 55.13 117.98"/><polygon class="cls-1" points="35.47 117.98 117.98 35.47 117.98 23.52 23.52 117.98 35.47 117.98"/><polygon class="cls-1" points="62.85 0 0 62.85 0 74.8 74.8 0 62.85 0"/><polygon points="0 0 0 3.86 3.86 0 0 0"/><polygon points="15.81 0 0 15.81 0 23.52 23.52 0 15.81 0"/><polygon points="35.47 0 0 35.47 0 43.19 43.19 0 35.47 0"/><polygon points="55.13 0 0 55.13 0 62.85 62.85 0 55.13 0"/><polygon points="74.8 0 0 74.8 0 82.52 82.52 0 74.8 0"/><polygon points="94.46 0 0 94.46 0 102.18 102.18 0 94.46 0"/><polygon points="117.98 3.86 117.98 0 114.13 0 0 114.13 0 117.98 3.86 117.98 117.98 3.86"/><polygon points="23.52 117.98 117.98 23.52 117.98 15.81 15.81 117.98 23.52 117.98"/><polygon points="43.19 117.98 117.98 43.19 117.98 35.47 35.47 117.98 43.19 117.98"/><polygon points="62.85 117.98 117.98 62.85 117.98 55.13 55.13 117.98 62.85 117.98"/><polygon points="82.52 117.98 117.98 82.52 117.98 74.8 74.8 117.98 82.52 117.98"/><polygon points="102.18 117.98 117.98 102.18 117.98 94.46 94.46 117.98 102.18 117.98"/><polygon points="117.98 117.98 117.98 114.13 114.13 117.98 117.98 117.98"/></pattern></defs><title>robovike-caution</title><path class="cls-3" d="M188.36,205.39c-27.27,35.67-59.84,49.78-76.68,40.06-3.26-1.89-9.78-6.89-13.1-21.29q-2.61,16.16-5.23,32.3l5-5.86,13.46,27.68,35.1-16.82.82,7,32.71-27.56Q184.4,223.13,188.36,205.39Z" transform="translate(-93.35 -21.72)"/><path class="cls-3" d="M96.72,190.22A50.82,50.82,0,0,0,107,196.45c15.54,7.06,36.79,7,53.85-1.82,10.83-5.6,15.31-12.33,20.93-10.23,4.75,1.76,6.71,8.48,7.61,14.09q.42-12.69.85-25.37a129.59,129.59,0,0,1-25.37,10.57c-13,3.85-27.77,8.08-44.5,3.36a57.34,57.34,0,0,1-12.93-5.43,9.34,9.34,0,0,1-3.1,6.55A9.45,9.45,0,0,1,96.72,190.22Z" transform="translate(-93.35 -21.72)"/><path class="cls-3" d="M108,176.2a60.2,60.2,0,0,0,13.63,5.3c16.73,4.23,31.16.1,43.29-3.54a126.25,126.25,0,0,0,25.3-10.71c-13.9-1.36-22.7-6.88-22.62-11.56.09-5.3,11.5-9.18,12.47-9.5-19.61-10.24-42-8.95-56.72,3.22C112.3,158.57,109,171.05,108,176.2Z" transform="translate(-93.35 -21.72)"/><path class="cls-3" d="M195.68,163.67c3.34-3.4,7.81-9,9.15-16.66,2.21-12.7-6.41-18.44-8.29-31.5C194,97.86,207.3,91.44,212,70.5c2.33-10.42,3-26.5-7.14-48.78,4,21.14,1.31,36.48-2,46.64-7.23,22.24-20.3,29.29-18.27,47.26,1.43,12.61,9.07,19.73,4.66,27.78-4.26,7.78-15.48,8.32-14.9,12.4.51,3.61,8.76,5.77,12.15,6.66A37.7,37.7,0,0,0,195.68,163.67Z" transform="translate(-93.35 -21.72)"/><path class="cls-3" d="M119.8,145.55a38.35,38.35,0,0,0-12.08,14.75c-3.42-3.66-7.89-9.63-8.56-17.4-1-11.17,7-15.54,9.64-26.6C113,99,99.66,90.3,96.09,69.56,94.21,58.68,94.73,42.81,106,21.72c-5.31,20.81-3.4,36.09-.7,46.19,6,22.49,19.16,32.05,15,49.16-2.15,8.82-9.77,16.49-6.14,23.46A11.83,11.83,0,0,0,119.8,145.55Z" transform="translate(-93.35 -21.72)"/></svg>