<svg xmlns="http://www.w3.org/2000/svg" viewBox="0 0 1600 900"><defs><style>.cls-1{fill:#0c0d18;}.cls-2{fill:#006498;}.cls-3{font-size:156.09px;}.cls-12,.cls-3,.cls-5,.cls-6{fill:#e0e0e0;}.cls-3,.cls-5,.cls-6{font-family:LemonMilk, "Lemon/Milk";}.cls-4{letter-spacing:-0.07em;}.cls-5{font-size:93.65px;}.cls-6{font-size:38.87px;}.cls-7{letter-spacing:-0.24em;}.cls-8{letter-spacing:-0.07em;}.cls-9{letter-spacing:-0.06em;}.cls-10{letter-spacing:-0.07em;}.cls-11{letter-spacing:0em;}.cls-13{fill:#e0e1e0;}</style></defs><title>robovike_banner_updated</title><g id="Layer_3" data-name="Layer 3"><rect class="cls-1" width="1600" height="900"/><rect class="cls-2" x="561.35" y="139.82" width="910.71" height="518.54" transform="translate(-50.41 166.24) rotate(-9.12)"/></g><g id="Layer_2" data-name="Layer 2"><text class="cls-3" transform="translate(572.57 412.7)">ROB<tspan class="cls-4" x="326.2" y="0">O</tspan><tspan x="445.78" y="0">VIKES</tspan></text><text class="cls-5" transform="translate(664.04 540.88)">FRC TEAM 3067</text><text class="cls-6" transform="translate(284.21 831.79)">GENE<tspan class="cls-7" x="103.11" y="0">V</tspan><tspan x="123.06" y="0">AROB</tspan><tspan class="cls-8" x="233.73" y="0">O</tspan><tspan x="263.51" y="0">VIKES.</tspan><tspan class="cls-9" x="381.2" y="0">C</tspan><tspan x="406.9" y="0" xml:space="preserve">OM   |   @Rob</tspan><tspan class="cls-10" x="674.98" y="0">o</tspan><tspan class="cls-11" x="704.76" y="0" xml:space="preserve">vikes3067         </tspan></text><g id="Logo_FIXED" data-name="Logo — FIXED"><path class="cls-12" d="M1286.24,834.4c16.26,0,25.15-13.49,25.15-25.16,0-.38,0-.75,0-1.13a18,18,0,0,0,4.41-4.59,18,18,0,0,1-5.09,1.4,8.9,8.9,0,0,0,3.9-4.9,17.61,17.61,0,0,1-5.62,2.14,8.84,8.84,0,0,0-15.29,6.05,9.69,9.69,0,0,0,.22,2,25.15,25.15,0,0,1-18.22-9.24,8.88,8.88,0,0,0,2.74,11.81,9,9,0,0,1-4-1.11v.12a8.85,8.85,0,0,0,7.09,8.67,8.51,8.51,0,0,1-2.33.31,8.88,8.88,0,0,1-1.65-.15,8.83,8.83,0,0,0,8.25,6.14,17.76,17.76,0,0,1-11,3.79,18.35,18.35,0,0,1-2.1-.12,25.15,25.15,0,0,0,13.53,3.95"/></g><path class="cls-12" d="M1238.12,836.56h-14.46a.48.48,0,0,0-.16-.08c-1-.08-2-.11-3-.24a10.52,10.52,0,0,1-3.47-1.11,9.71,9.71,0,0,1-3.15-2.55,9.89,9.89,0,0,1-1.59-2.69,14.4,14.4,0,0,1-1-5.4,2.29,2.29,0,0,0-.07-.36V809.6c0-.05.07-.1.07-.16,0-.55,0-1.11.09-1.66a17.62,17.62,0,0,1,.35-2.31,10.16,10.16,0,0,1,6.44-7.36,15.24,15.24,0,0,1,5.31-.86,2.43,2.43,0,0,0,.47-.08h13.91c.06,0,.11.08.16.08.58,0,1.16,0,1.74.09a14.51,14.51,0,0,1,2.1.25,10.22,10.22,0,0,1,7.88,6.75,15.7,15.7,0,0,1,.79,5.18,3.81,3.81,0,0,0,.07.47v13.75a1.09,1.09,0,0,0-.07.24c-.09,1.08-.13,2.16-.25,3.23a10.28,10.28,0,0,1-.9,3.11,10,10,0,0,1-5.26,5.13,14.29,14.29,0,0,1-5.67,1A1.47,1.47,0,0,0,1238.12,836.56ZM1247,810h0c0-.47-.09-.93-.1-1.39a11.25,11.25,0,0,0-.47-2.83,6.48,6.48,0,0,0-3.18-3.93,8.8,8.8,0,0,0-3.52-1c-1.19-.09-2.38-.16-3.57-.15q-5.69,0-11.39.07a34.1,34.1,0,0,0-3.5.24,6.78,6.78,0,0,0-4.52,2.33,6.26,6.26,0,0,0-1.48,3.1,30.43,30.43,0,0,0-.4,4.57c0,4.12,0,8.24.05,12.37a19.5,19.5,0,0,0,.32,3.65,6.65,6.65,0,0,0,5.09,5.39,19.55,19.55,0,0,0,4.82.45c4.29,0,8.59,0,12.88-.06a15.58,15.58,0,0,0,3.47-.39A6.53,6.53,0,0,0,1246,829a8.82,8.82,0,0,0,.88-3.38c.11-1.2.16-2.4.16-3.6C1247,818.05,1247,814,1247,810Z"/><path class="cls-12" d="M1230.94,827a10.15,10.15,0,1,1,10.14-9.9A10.12,10.12,0,0,1,1230.94,827Zm6.48-10.17a6.52,6.52,0,1,0-6.53,6.55A6.5,6.5,0,0,0,1237.42,816.85Z"/><path class="cls-12" d="M1241.43,808.74a2.39,2.39,0,0,1-2.4-2.49,2.41,2.41,0,0,1,4.81.18A2.39,2.39,0,0,1,1241.43,808.74Z"/><path class="cls-2" d="M381.62,537.89c-67.69,88.56-148.55,123.58-190.35,99.44-8.1-4.68-24.27-17.09-32.51-52.85q-6.51,40.1-13,80.2l12.43-14.57,33.43,68.74,87.13-41.78,2,17.28L362,625.94Q371.8,581.92,381.62,537.89Z"/><path class="cls-2" d="M154.15,500.22a126.24,126.24,0,0,0,25.51,15.48c38.58,17.51,91.33,17.36,133.67-4.53,26.9-13.91,38-30.6,52-25.4,11.8,4.39,16.65,21.06,18.89,35l2.1-63a322.67,322.67,0,0,1-63,26.24c-32.25,9.55-68.95,20.05-110.49,8.34a143,143,0,0,1-32.1-13.49,23.11,23.11,0,0,1-7.7,16.27C165.06,502.07,155.38,500.44,154.15,500.22Z"/><path class="cls-2" d="M182.16,465.43A150,150,0,0,0,216,478.57c41.53,10.52,77.36.25,107.48-8.77a315,315,0,0,0,62.78-26.58c-34.49-3.39-56.33-17.09-56.14-28.72.22-13.15,28.56-22.79,31-23.58-48.68-25.43-104.31-22.22-140.8,8C192.82,421.65,184.71,452.63,182.16,465.43Z"/><path class="cls-13" d="M399.8,434.33c8.29-8.45,19.4-22.39,22.71-41.38,5.51-31.53-15.9-45.77-20.58-78.19C395.62,271,428.66,255,440.26,203c5.77-25.87,7.37-65.79-17.75-121.12,10.05,52.5,3.27,90.57-4.94,115.81-17.94,55.19-50.39,72.7-45.34,117.3,3.54,31.31,22.52,49,11.57,69-10.57,19.3-38.43,20.66-37,30.78,1.27,9,21.74,14.32,30.17,16.53A93.27,93.27,0,0,0,399.8,434.33Z"/><path class="cls-13" d="M211.43,389.33a95.56,95.56,0,0,0-30,36.62c-8.49-9.09-19.58-23.9-21.24-43.2-2.39-27.72,17.27-38.59,23.92-66,10.4-42.93-22.69-64.53-31.56-116-4.65-27-3.38-66.4,24.68-118.77-13.16,51.66-8.44,89.62-1.74,114.68,14.94,55.83,47.57,79.57,37.26,122-5.32,21.9-24.23,40.95-15.23,58.26C200.94,383.42,206.88,387.17,211.43,389.33Z"/></g></svg>