<svg id="Layer_2" data-name="Layer 2" xmlns="http://www.w3.org/2000/svg" xmlns:xlink="http://www.w3.org/1999/xlink" viewBox="0 0 123.37 268.78"><defs><style>.cls-1{fill:#006498;}.cls-2{fill:url(#Super_Soft_Black_Vignette);}.cls-3{fill:url(#Super_Soft_Black_Vignette-2);}.cls-4{fill:url(#Super_Soft_Black_Vignette-3);}.cls-5{fill:url(#Super_Soft_Black_Vignette-4);}.cls-6{fill:url(#Super_Soft_Black_Vignette-5);}</style><radialGradient id="Super_Soft_Black_Vignette" cx="141.12" cy="239.96" r="45.19" gradientUnits="userSpaceOnUse"><stop offset="0.57" stop-color="#130c0e" stop-opacity="0"/><stop offset="0.8" stop-color="#130c0e" stop-opacity="0.65"/><stop offset="0.82" stop-color="#130c0e" stop-opacity="0.7"/><stop offset="1" stop-color="#130c0e" stop-opacity="0.95"/></radialGradient><radialGradient id="Super_Soft_Black_Vignette-2" cx="141.68" cy="186.85" r="37.07" xlink:href="#Super_Soft_Black_Vignette"/><radialGradient id="Super_Soft_Black_Vignette-3" cx="150.52" cy="161.3" r="35.19" xlink:href="#Super_Soft_Black_Vignette"/><radialGradient id="Super_Soft_Black_Vignette-4" cx="193.85" cy="88.11" r="56.32" xlink:href="#Super_Soft_Black_Vignette"/><radialGradient id="Super_Soft_Black_Vignette-5" cx="108.2" cy="87.14" r="54.29" xlink:href="#Super_Soft_Black_Vignette"/></defs><title>robovike_variant1</title><path class="cls-1" d="M188.36,205.39c-27.27,35.67-59.84,49.78-76.68,40.06-3.26-1.89-9.78-6.89-13.1-21.29q-2.61,16.16-5.23,32.3l5-5.86,13.46,27.68,35.1-16.82.82,7,32.71-27.56Q184.4,223.13,188.36,205.39Z" transform="translate(-91.32 -11.24)"/><path class="cls-2" d="M188.36,205.39q-4,17.73-7.91,35.47l-32.71,27.56-.82-7-35.1,16.82L98.36,250.6l-5,5.86q2.61-16.15,5.23-32.3c3.32,14.4,9.84,19.4,13.1,21.29a24.2,24.2,0,0,0,12.23,3c17.8,0,42.8-14.73,64.45-43.05m2.55-5.48-3.59,4.69c-19.75,25.84-44.64,42.54-63.41,42.54a22.89,22.89,0,0,1-11.58-2.82c-5.86-3.38-10.18-10.46-12.48-20.45l-1.49-6.46L97.3,224l-5.24,32.3-.74,4.59,3-3.53L98.05,253l12.6,25.9.57,1.17,1.16-.56,33.46-16,.6,5.16.29,2.4,1.84-1.56,32.71-27.56.34-.28.09-.43L187.33,216l2.29-10.28,1.29-5.76Z" transform="translate(-91.32 -11.24)"/><path class="cls-1" d="M96.72,190.22A50.82,50.82,0,0,0,107,196.45c15.54,7.06,36.79,7,53.85-1.82,10.83-5.6,15.31-12.33,20.93-10.23,4.75,1.76,6.71,8.48,7.61,14.09q.42-12.69.85-25.37a129.59,129.59,0,0,1-25.37,10.57c-13,3.85-27.77,8.08-44.5,3.36a57.34,57.34,0,0,1-12.93-5.43,9.34,9.34,0,0,1-3.1,6.55A9.45,9.45,0,0,1,96.72,190.22Z" transform="translate(-91.32 -11.24)"/><path class="cls-3" d="M190.24,173.12q-.44,12.69-.85,25.37c-.9-5.61-2.86-12.33-7.61-14.09a6,6,0,0,0-2.12-.4c-4.75,0-9.36,5.74-18.81,10.63a64,64,0,0,1-29.17,6.88A60.2,60.2,0,0,1,107,196.45a50.82,50.82,0,0,1-10.28-6.23,9.27,9.27,0,0,0,1.58.13,9.17,9.17,0,0,0,6-2.18,9.34,9.34,0,0,0,3.1-6.55,57.34,57.34,0,0,0,12.93,5.43,55.73,55.73,0,0,0,15.26,2.09c10.62,0,20.35-2.81,29.24-5.45a129.59,129.59,0,0,0,25.37-10.57m1.37-2.23-2,1.09a128.71,128.71,0,0,1-25.11,10.46c-8.11,2.41-18.2,5.4-28.87,5.4a54.21,54.21,0,0,1-14.91-2,56.12,56.12,0,0,1-12.64-5.31l-1.87-1.07-.07,2.15a8,8,0,0,1-2.66,5.62A8.16,8.16,0,0,1,97,188.94l-5.22-1,4.18,3.27a52.23,52.23,0,0,0,10.54,6.4,61.53,61.53,0,0,0,25.22,5.17,65,65,0,0,0,29.76-7,81,81,0,0,0,9.93-6.25c3.46-2.45,6-4.23,8.29-4.23a4.93,4.93,0,0,1,1.67.31c3.3,1.23,5.58,5.63,6.78,13.08l2.58-.16.41-12.48.43-12.88.08-2.28Z" transform="translate(-91.32 -11.24)"/><path class="cls-1" d="M108,176.2a60.2,60.2,0,0,0,13.63,5.3c16.73,4.23,31.16.1,43.29-3.54a126.25,126.25,0,0,0,25.3-10.71c-13.9-1.36-22.7-6.88-22.62-11.56.09-5.3,11.5-9.18,12.47-9.5-19.61-10.24-42-8.95-56.72,3.22C112.3,158.57,109,171.05,108,176.2Z" transform="translate(-91.32 -11.24)"/><path class="cls-4" d="M152.88,139.31a59,59,0,0,1,27.2,6.88c-1,.32-12.38,4.2-12.47,9.5-.08,4.68,8.72,10.2,22.62,11.56A126.25,126.25,0,0,1,164.93,178c-8.48,2.54-18.08,5.33-28.8,5.33a59,59,0,0,1-14.49-1.79A60.2,60.2,0,0,1,108,176.2c1-5.15,4.29-17.63,15.35-26.79,8.09-6.7,18.51-10.1,29.52-10.1m0-1.3c-11.47,0-22.25,3.69-30.35,10.4-10.74,8.9-14.51,21.07-15.8,27.54l-.19.94.86.46a61.69,61.69,0,0,0,13.92,5.41,59.67,59.67,0,0,0,14.81,1.83c11.22,0,21.18-3,29.18-5.38a128.31,128.31,0,0,0,25.55-10.82l3.63-2-4.14-.41c-14.08-1.38-21.5-6.84-21.44-10.25s7-6.76,11.58-8.29l2.91-1L180.68,145a60.38,60.38,0,0,0-27.8-7Z" transform="translate(-91.32 -11.24)"/><path class="cls-1" d="M195.68,163.67c3.34-3.4,7.81-9,9.15-16.66,2.21-12.7-6.41-18.44-8.29-31.5C194,97.86,207.3,91.44,212,70.5c2.33-10.42,3-26.5-7.14-48.78,4,21.14,1.31,36.48-2,46.64-7.23,22.24-20.3,29.29-18.27,47.26,1.43,12.61,9.07,19.73,4.66,27.78-4.26,7.78-15.48,8.32-14.9,12.4.51,3.61,8.76,5.77,12.15,6.66A37.7,37.7,0,0,0,195.68,163.67Z" transform="translate(-91.32 -11.24)"/><path class="cls-5" d="M204.83,21.72C214.94,44,214.3,60.08,212,70.5c-4.67,20.94-18,27.36-15.43,45,1.88,13.06,10.5,18.8,8.29,31.5-1.34,7.65-5.81,13.26-9.15,16.66a37.7,37.7,0,0,1-9.2-1.21c-3.39-.89-11.64-3.05-12.15-6.66-.58-4.08,10.64-4.62,14.9-12.4,4.41-8.05-3.23-15.17-4.66-27.78-2-18,11-25,18.27-47.26,3.3-10.16,6-25.5,2-46.64M201.5,11.24,203.55,22c3.2,16.71,2.54,32.19-2,46-2.91,8.94-6.8,15.43-10.23,21.16-5,8.36-9.34,15.58-8.09,26.64A53,53,0,0,0,186.89,129c2.06,5.51,3.56,9.48,1.2,13.79-2.07,3.78-6.1,5.76-9.33,7.35s-6.12,3-5.72,5.85c.56,3.94,6.94,6.12,13.11,7.74a39,39,0,0,0,9.52,1.25h.55l.39-.4c5.22-5.32,8.41-11.15,9.5-17.35,1.36-7.78-1.13-13.07-3.77-18.66-1.85-3.92-3.76-8-4.52-13.24-1.38-9.58,2-15.54,6.36-23.09,3.28-5.73,7-12.21,9.06-21.45,3.35-15,.91-31.68-7.23-49.61l-4.51-9.94Z" transform="translate(-91.32 -11.24)"/><path class="cls-1" d="M119.8,145.55a38.35,38.35,0,0,0-12.08,14.75c-3.42-3.66-7.89-9.63-8.56-17.4-1-11.17,7-15.54,9.64-26.6C113,99,99.66,90.3,96.09,69.56,94.21,58.68,94.73,42.81,106,21.72c-5.31,20.81-3.4,36.09-.7,46.19,6,22.49,19.16,32.05,15,49.16-2.15,8.82-9.77,16.49-6.14,23.46A11.83,11.83,0,0,0,119.8,145.55Z" transform="translate(-91.32 -11.24)"/><path class="cls-6" d="M106,21.72c-5.31,20.81-3.4,36.09-.7,46.19,6,22.49,19.16,32.05,15,49.16-2.15,8.82-9.77,16.49-6.14,23.46a11.83,11.83,0,0,0,5.6,5,38.35,38.35,0,0,0-12.08,14.75c-3.42-3.66-7.89-9.63-8.56-17.4-1-11.17,7-15.54,9.64-26.6C113,99,99.66,90.3,96.09,69.56,94.21,58.68,94.73,42.81,106,21.72m3.89-10-5,9.41C95.61,38.4,92.22,54.78,94.81,69.78c1.52,8.87,4.82,15.62,7.72,21.58,3.93,8.07,7.33,15,5,24.63a38.59,38.59,0,0,1-4.9,11c-2.76,4.7-5.36,9.14-4.76,16.07.54,6.32,3.54,12.44,8.9,18.18l1.31,1.4.82-1.74a37.14,37.14,0,0,1,11.67-14.25l1.75-1.29-2-.93a10.44,10.44,0,0,1-5-4.45c-2-3.9.09-8.25,2.54-13.28a47.19,47.19,0,0,0,3.71-9.28c2.63-10.84-1.46-18.92-6.2-28.27-3-6-6.49-12.81-8.82-21.52-3.7-13.85-3.46-29.17.71-45.54l2.63-10.35Z" transform="translate(-91.32 -11.24)"/></svg>