<svg xmlns="http://www.w3.org/2000/svg" viewBox="0 0 1600 900"><defs><style>.cls-1{fill:#0c0d18;}.cls-2{fill:#006498;}.cls-3{font-size:150px;}.cls-3,.cls-5,.cls-6,.cls-9{fill:#e0e0e0;}.cls-3,.cls-5,.cls-6{font-family:LemonMilk, "Lemon/Milk";}.cls-4{letter-spacing:-0.07em;}.cls-5{font-size:90px;}.cls-6{font-size:36px;}.cls-7{letter-spacing:-0.24em;}.cls-8{letter-spacing:-0.06em;}.cls-10{fill:#e0e1e0;}</style></defs><title>robovike_banner</title><g id="Layer_3" data-name="Layer 3"><rect class="cls-1" width="1600" height="900"/><rect class="cls-2" x="560.04" y="137.14" width="875.18" height="498.31" transform="translate(-48.62 163.05) rotate(-9.12)"/></g><g id="Layer_2" data-name="Layer 2"><text class="cls-3" transform="translate(570.83 399.37)">ROB<tspan class="cls-4" x="313.48" y="0">O</tspan><tspan x="428.39" y="0">VIKES</tspan></text><text class="cls-5" transform="translate(658.74 522.54)">FRC TEAM 3067</text><text class="cls-6" transform="translate(94.24 830.95)">GENE<tspan class="cls-7" x="95.5" y="0">V</tspan><tspan x="113.98" y="0">AROB</tspan><tspan class="cls-4" x="216.47" y="0">O</tspan><tspan x="244.05" y="0">VIKES.</tspan><tspan class="cls-8" x="353.06" y="0">C</tspan><tspan x="376.86" y="0" xml:space="preserve">OM   |         @Rob</tspan><tspan class="cls-4" x="688.43" y="0">o</tspan><tspan x="716.01" y="0" xml:space="preserve">vikes3067  |         @GENE</tspan><tspan class="cls-7" x="1161.56" y="0">V</tspan><tspan x="1180.04" y="0">AROB</tspan><tspan class="cls-4" x="1282.54" y="0">O</tspan><tspan x="1310.12" y="0">VIKES</tspan></text><g id="Logo_FIXED" data-name="Logo — FIXED"><path class="cls-9" d="M617.22,833.35c15.06,0,23.3-12.48,23.3-23.29,0-.35,0-.7,0-1a16.7,16.7,0,0,0,4.09-4.25,16.84,16.84,0,0,1-4.71,1.29,8.27,8.27,0,0,0,3.61-4.53,16.4,16.4,0,0,1-5.21,2,8.19,8.19,0,0,0-14.16,5.6,8.93,8.93,0,0,0,.21,1.87,23.28,23.28,0,0,1-16.88-8.56A8.23,8.23,0,0,0,610,813.35a8.38,8.38,0,0,1-3.7-1v.11a8.2,8.2,0,0,0,6.56,8,8.1,8.1,0,0,1-2.16.29,7.78,7.78,0,0,1-1.53-.15,8.2,8.2,0,0,0,7.65,5.69,16.44,16.44,0,0,1-10.17,3.51,15.71,15.71,0,0,1-1.95-.11,23.28,23.28,0,0,0,12.53,3.65"/></g><path class="cls-9" d="M1081.51,834.68h-13.39a1,1,0,0,0-.15-.07c-.94-.07-1.88-.11-2.81-.23a9.62,9.62,0,0,1-3.22-1,9.37,9.37,0,0,1-4.38-4.85,13.4,13.4,0,0,1-.88-5,1.65,1.65,0,0,0-.07-.32V809.71a.91.91,0,0,0,.07-.14c0-.52,0-1,.08-1.54a16.72,16.72,0,0,1,.32-2.14,9.41,9.41,0,0,1,6-6.82,14.27,14.27,0,0,1,4.93-.79,3.39,3.39,0,0,0,.44-.08h12.88s.09.07.14.07c.54,0,1.08,0,1.62.09a12.53,12.53,0,0,1,1.94.23,9.48,9.48,0,0,1,7.3,6.25,14.72,14.72,0,0,1,.73,4.8,2.14,2.14,0,0,0,.07.43v12.74a1.19,1.19,0,0,0-.08.22c-.07,1-.11,2-.22,3a9.66,9.66,0,0,1-.84,2.87,9.26,9.26,0,0,1-2.43,3.25,9.11,9.11,0,0,1-2.44,1.51,13.28,13.28,0,0,1-5.25,1A1.65,1.65,0,0,0,1081.51,834.68Zm8.25-24.56h0c0-.43-.08-.86-.09-1.29a10.64,10.64,0,0,0-.44-2.62,6,6,0,0,0-2.94-3.64,7.89,7.89,0,0,0-3.26-.88c-1.1-.09-2.2-.15-3.3-.15-3.52,0-7,0-10.55.07a31.86,31.86,0,0,0-3.25.22,6.3,6.3,0,0,0-4.18,2.16,5.75,5.75,0,0,0-1.38,2.87,28.65,28.65,0,0,0-.37,4.23c0,3.82,0,7.64,0,11.46a17.49,17.49,0,0,0,.3,3.38,6.16,6.16,0,0,0,4.71,5,18.17,18.17,0,0,0,4.47.42c4,0,8,0,11.92-.06a14,14,0,0,0,3.22-.36,6,6,0,0,0,4.16-3.2,8.17,8.17,0,0,0,.82-3.13c.1-1.11.15-2.23.15-3.34C1089.77,817.54,1089.76,813.83,1089.76,810.12Z"/><path class="cls-9" d="M1074.86,825.85a9.4,9.4,0,1,1,9.38-9.17A9.37,9.37,0,0,1,1074.86,825.85Zm6-9.42a6,6,0,0,0-12.07,0,6,6,0,1,0,12.07,0Z"/><path class="cls-9" d="M1084.57,808.92a2.21,2.21,0,0,1-2.22-2.31,2.31,2.31,0,0,1,2.27-2.12,2.27,2.27,0,0,1,2.18,2.29A2.2,2.2,0,0,1,1084.57,808.92Z"/><path class="cls-2" d="M387.28,516.35C328.83,592.81,259,623,222.93,602.2c-7-4-21-14.75-28.07-45.63l-11.22,69.24,10.74-12.57,28.86,59.34,75.22-36.07,1.76,14.92,70.1-59.06Q378.8,554.36,387.28,516.35Z"/><path class="cls-2" d="M190.88,483.82a109.09,109.09,0,0,0,22,13.38c33.31,15.11,78.85,15,115.4-3.92,23.23-12,32.82-26.42,44.88-21.93,10.18,3.79,14.37,18.18,16.3,30.2q.92-27.18,1.81-54.36A278.84,278.84,0,0,1,337,469.84c-27.84,8.25-59.53,17.31-95.4,7.2a123.79,123.79,0,0,1-27.71-11.64,19.94,19.94,0,0,1-6.64,14C200.3,485.42,192,484,190.88,483.82Z"/><path class="cls-2" d="M215.07,453.79a129.49,129.49,0,0,0,29.22,11.34c35.85,9.09,66.78.22,92.78-7.57a271,271,0,0,0,54.21-22.95c-29.78-2.92-48.63-14.75-48.47-24.79.19-11.35,24.66-19.67,26.73-20.36-42-21.95-90.06-19.18-121.56,6.91C224.27,416,217.27,442.74,215.07,453.79Z"/><path class="cls-10" d="M403,426.94c7.16-7.3,16.74-19.33,19.61-35.72,4.75-27.23-13.73-39.52-17.77-67.51-5.45-37.82,23.08-51.59,33.09-96.46,5-22.34,6.36-56.8-15.32-104.57,8.67,45.33,2.82,78.19-4.27,100-15.49,47.65-43.51,62.77-39.14,101.28,3.06,27,19.44,42.29,10,59.55C380,400.15,356,401.32,357.22,410.06c1.09,7.75,18.77,12.37,26,14.27A80.65,80.65,0,0,0,403,426.94Z"/><path class="cls-10" d="M240.34,388.09a82.51,82.51,0,0,0-25.89,31.61c-7.33-7.84-16.9-20.62-18.34-37.29-2.06-23.93,14.91-33.31,20.65-57,9-37.06-19.59-55.7-27.24-100.17-4-23.31-2.92-57.33,21.3-102.54-11.36,44.6-7.29,77.37-1.5,99,12.9,48.2,41.07,68.69,32.17,105.35-4.59,18.91-20.92,35.36-13.15,50.3C231.29,383,236.42,386.23,240.34,388.09Z"/></g></svg>