<svg id="Layer_1" data-name="Layer 1" xmlns="http://www.w3.org/2000/svg" viewBox="0 0 825.95 825.95"><defs><style>.cls-1{fill:#11121a;}.cls-2{fill:#066599;}.cls-2,.cls-3,.cls-5{stroke:#066599;stroke-miterlimit:10;}.cls-3,.cls-5{fill:none;}.cls-4{font-size:60px;}.cls-12,.cls-4,.cls-6,.cls-7{fill:#e0e1e0;}.cls-4,.cls-6,.cls-7{font-family:LemonMilk, "Lemon/Milk";}.cls-5{opacity:0.2;}.cls-6{font-size:72px;}.cls-7{font-size:36px;}.cls-8{letter-spacing:-0.24em;}.cls-9{letter-spacing:-0.07em;}.cls-10{letter-spacing:-0.06em;}.cls-11{fill:#006498;}</style></defs><title>robovikes-button</title><g id="Layer_3" data-name="Layer 3"><rect class="cls-1" width="825.95" height="825.95"/></g><path class="cls-2" d="M400,800A400.11,400.11,0,0,1,244.3,31.43,400.11,400.11,0,0,1,555.7,768.57,397.67,397.67,0,0,1,400,800ZM400,1C180,1,1,180,1,400S180,799,400,799,799,620,799,400,620,1,400,1Z" transform="translate(12.55 11.32)"/><path class="cls-3" d="M400,769.23A369.33,369.33,0,0,1,256.28,59.79,369.32,369.32,0,0,1,543.72,740.21,367,367,0,0,1,400,769.23Z" transform="translate(12.55 11.32)"/><text class="cls-4" transform="translate(249.4 638.9) scale(0.99 1)">Team 3067</text><polygon class="cls-3" points="160.2 404.42 136.8 385.38 127.34 402.57 160.2 404.42"/><polygon class="cls-5" points="156.41 554.45 172.53 556.32 183.3 464.79 162.11 461.65 133.01 496.22 156.41 554.45"/><polygon class="cls-5" points="97.66 538.23 107.8 548.8 144.2 553.03 107.16 526.93 97.66 538.23"/><polygon class="cls-5" points="112.89 401.76 127.34 402.57 136.8 385.38 100.13 355.55 112.89 401.76"/><polygon class="cls-5" points="193.83 431.78 194.78 422.84 189.93 428.61 193.83 431.78"/><polygon class="cls-5" points="204.7 262.06 136.8 385.38 160.2 404.42 196.51 406.46 217.55 207.59 195.94 204.62 143.66 295.4 204.7 262.06"/><polygon class="cls-5" points="59.91 209.98 91.4 323.95 113.53 311.86 59.91 209.98"/><polygon class="cls-5" points="136.8 385.38 204.7 262.06 143.66 295.4 123.39 330.6 113.53 311.86 91.4 323.95 100.13 355.55 136.8 385.38"/><polygon class="cls-5" points="136.8 385.38 204.7 262.06 143.66 295.4 123.39 330.6 113.53 311.86 91.4 323.95 100.13 355.55 136.8 385.38"/><polygon class="cls-5" points="53.01 185 195.94 204.62 237.39 132.65 24.33 11.32 12.54 11.32 12.54 96.51 24.8 82.88 53.01 185"/><polygon class="cls-5" points="59.91 209.98 113.53 311.86 143.66 295.4 195.94 204.62 53.01 185 59.91 209.98"/><polygon class="cls-5" points="59.91 209.98 113.53 311.86 143.66 295.4 195.94 204.62 53.01 185 59.91 209.98"/><polygon class="cls-5" points="143.66 295.4 113.53 311.86 123.39 330.6 143.66 295.4"/><polygon class="cls-5" points="143.66 295.4 113.53 311.86 123.39 330.6 143.66 295.4"/><polygon class="cls-5" points="143.66 295.4 113.53 311.86 123.39 330.6 143.66 295.4"/><polygon class="cls-5" points="169.23 612.85 269.84 567.62 172.53 556.32 166.24 609.74 169.23 612.85"/><polygon class="cls-5" points="12.54 662.67 12.54 683.3 41.64 670.21 12.54 662.67"/><polygon class="cls-5" points="160.45 564.48 144.2 553.03 107.8 548.8 166.24 609.74 172.53 556.32 156.41 554.45 160.45 564.48"/><polygon class="cls-5" points="160.45 564.48 144.2 553.03 107.8 548.8 166.24 609.74 172.53 556.32 156.41 554.45 160.45 564.48"/><polygon class="cls-5" points="156.95 688.72 102.06 643.05 41.64 670.21 284.7 733.25 169.23 612.85 165.69 614.45 156.95 688.72"/><polygon class="cls-5" points="97.66 538.23 90.45 546.78 107.8 548.8 97.66 538.23"/><polygon class="cls-5" points="97.66 538.23 90.45 546.78 107.8 548.8 97.66 538.23"/><polygon class="cls-5" points="165.69 614.45 102.06 643.05 156.95 688.72 165.69 614.45"/><polygon class="cls-5" points="165.69 614.45 102.06 643.05 156.95 688.72 165.69 614.45"/><polygon class="cls-5" points="102.06 643.05 47.57 597.73 12.54 639.34 12.54 662.67 41.64 670.21 102.06 643.05"/><polygon class="cls-5" points="102.06 643.05 47.57 597.73 12.54 639.34 12.54 662.67 41.64 670.21 102.06 643.05"/><polygon class="cls-5" points="165.69 614.45 169.23 612.85 166.24 609.74 165.69 614.45"/><polygon class="cls-5" points="165.69 614.45 169.23 612.85 166.24 609.74 165.69 614.45"/><polygon class="cls-5" points="166.24 609.74 107.8 548.8 90.45 546.78 47.57 597.73 102.06 643.05 165.69 614.45 166.24 609.74"/><polygon class="cls-5" points="166.24 609.74 107.8 548.8 90.45 546.78 47.57 597.73 102.06 643.05 165.69 614.45 166.24 609.74"/><polygon class="cls-5" points="166.24 609.74 107.8 548.8 90.45 546.78 47.57 597.73 102.06 643.05 165.69 614.45 166.24 609.74"/><polygon class="cls-5" points="12.54 119.97 12.54 179.44 46.28 184.07 12.54 119.97"/><polygon class="cls-5" points="64.98 326.95 68.74 336.32 73.38 333.79 64.98 326.95"/><polygon class="cls-5" points="100.13 355.55 73.38 333.79 68.74 336.32 94.63 400.73 112.89 401.76 100.13 355.55"/><polygon class="cls-5" points="100.13 355.55 73.38 333.79 68.74 336.32 94.63 400.73 112.89 401.76 100.13 355.55"/><polygon class="cls-5" points="73.38 333.79 91.4 323.95 59.91 209.98 46.28 184.07 12.54 179.44 12.54 196.5 64.98 326.95 73.38 333.79"/><polygon class="cls-5" points="73.38 333.79 91.4 323.95 59.91 209.98 46.28 184.07 12.54 179.44 12.54 196.5 64.98 326.95 73.38 333.79"/><polygon class="cls-5" points="91.4 323.95 73.38 333.79 100.13 355.55 91.4 323.95"/><polygon class="cls-5" points="91.4 323.95 73.38 333.79 100.13 355.55 91.4 323.95"/><polygon class="cls-5" points="91.4 323.95 73.38 333.79 100.13 355.55 91.4 323.95"/><polygon class="cls-5" points="53.01 185 24.8 82.88 12.54 96.51 12.54 119.97 46.28 184.07 53.01 185"/><polygon class="cls-5" points="53.01 185 24.8 82.88 12.54 96.51 12.54 119.97 46.28 184.07 53.01 185"/><polygon class="cls-5" points="46.28 184.07 59.91 209.98 53.01 185 46.28 184.07"/><polygon class="cls-5" points="46.28 184.07 59.91 209.98 53.01 185 46.28 184.07"/><polygon class="cls-5" points="46.28 184.07 59.91 209.98 53.01 185 46.28 184.07"/><polygon class="cls-5" points="144.2 553.03 156.41 554.45 133.01 496.22 107.16 526.93 144.2 553.03"/><polygon class="cls-5" points="144.2 553.03 156.41 554.45 133.01 496.22 107.16 526.93 144.2 553.03"/><polygon class="cls-5" points="12.54 379.4 12.54 396.11 32.9 397.25 12.54 379.4"/><polygon class="cls-5" points="12.54 379.4 12.54 396.11 32.9 397.25 12.54 379.4"/><polygon class="cls-5" points="160.45 564.48 156.41 554.45 144.2 553.03 160.45 564.48"/><polygon class="cls-5" points="160.45 564.48 156.41 554.45 144.2 553.03 160.45 564.48"/><polygon class="cls-5" points="160.45 564.48 156.41 554.45 144.2 553.03 160.45 564.48"/><polygon class="cls-5" points="64.98 326.95 12.54 284.3 12.54 367.01 68.74 336.32 64.98 326.95"/><polygon class="cls-5" points="64.98 326.95 12.54 284.3 12.54 367.01 68.74 336.32 64.98 326.95"/><polygon class="cls-5" points="94.63 400.73 68.74 336.32 12.54 367.01 12.54 379.4 32.9 397.25 94.63 400.73"/><polygon class="cls-5" points="94.63 400.73 68.74 336.32 12.54 367.01 12.54 379.4 32.9 397.25 94.63 400.73"/><polygon class="cls-5" points="94.63 400.73 68.74 336.32 12.54 367.01 12.54 379.4 32.9 397.25 94.63 400.73"/><polygon class="cls-5" points="12.54 196.5 12.54 284.3 64.98 326.95 12.54 196.5"/><polygon class="cls-5" points="12.54 196.5 12.54 284.3 64.98 326.95 12.54 196.5"/><polygon class="cls-5" points="12.54 196.5 12.54 284.3 64.98 326.95 12.54 196.5"/><polygon class="cls-5" points="589.27 641.68 800.38 736.52 812.18 714.54 812.18 665.3 657.01 603.74 589.27 641.68"/><polygon class="cls-5" points="678.52 532.54 628.25 501.12 598.82 580.66 657.01 603.74 694.72 582.62 678.52 532.54"/><polygon class="cls-5" points="649.65 443.3 647.33 449.57 651.18 448.05 649.65 443.3"/><polygon class="cls-5" points="717.06 570.1 728.41 563.74 720.25 558.63 717.06 570.1"/><polygon class="cls-5" points="780.49 596.3 728.41 563.74 717.06 570.1 704.85 613.93 694.72 582.62 657.01 603.74 812.18 665.3 812.18 617.95 787.99 586.09 780.49 596.3"/><polygon class="cls-5" points="780.49 596.3 728.41 563.74 717.06 570.1 704.85 613.93 694.72 582.62 657.01 603.74 812.18 665.3 812.18 617.95 787.99 586.09 780.49 596.3"/><polygon class="cls-5" points="777.23 354.07 763.33 403.99 812.18 384.79 812.18 370.14 796.57 362.76 777.23 354.07"/><polygon class="cls-5" points="812.18 553.41 812.18 553.17 812.1 553.29 812.18 553.41"/><polygon class="cls-5" points="812.18 553.41 812.18 553.17 812.1 553.29 812.18 553.41"/><polygon class="cls-5" points="787.99 586.09 812.18 617.95 812.18 553.41 812.1 553.29 787.99 586.09"/><polygon class="cls-5" points="787.99 586.09 812.18 617.95 812.18 553.41 812.1 553.29 787.99 586.09"/><polygon class="cls-5" points="787.99 586.09 812.18 617.95 812.18 553.41 812.1 553.29 787.99 586.09"/><polygon class="cls-5" points="584.99 474.06 628.25 501.12 647.33 449.57 584.99 474.06"/><polygon class="cls-5" points="732.84 513.43 720.25 558.63 728.41 563.74 758.32 546.99 732.84 513.43"/><polygon class="cls-5" points="732.84 513.43 720.25 558.63 728.41 563.74 758.32 546.99 732.84 513.43"/><polygon class="cls-5" points="651.18 448.05 647.33 449.57 628.25 501.12 678.52 532.54 651.18 448.05"/><polygon class="cls-5" points="651.18 448.05 647.33 449.57 628.25 501.12 678.52 532.54 651.18 448.05"/><polygon class="cls-5" points="728.41 563.74 780.49 596.3 787.99 586.09 758.32 546.99 728.41 563.74"/><polygon class="cls-5" points="728.41 563.74 780.49 596.3 787.99 586.09 758.32 546.99 728.41 563.74"/><polygon class="cls-5" points="728.41 563.74 780.49 596.3 787.99 586.09 758.32 546.99 728.41 563.74"/><polygon class="cls-5" points="746.71 463.66 793.23 527.43 812.18 516.82 812.18 384.79 763.33 403.99 746.71 463.66"/><polygon class="cls-5" points="746.71 463.66 793.23 527.43 812.18 516.82 812.18 384.79 763.33 403.99 746.71 463.66"/><polygon class="cls-5" points="812.1 553.29 812.18 553.17 812.18 516.82 793.23 527.43 812.1 553.29"/><polygon class="cls-5" points="812.1 553.29 812.18 553.17 812.18 516.82 793.23 527.43 812.1 553.29"/><polygon class="cls-5" points="812.1 553.29 812.18 553.17 812.18 516.82 793.23 527.43 812.1 553.29"/><polygon class="cls-5" points="758.32 546.99 793.23 527.43 746.71 463.66 732.84 513.43 758.32 546.99"/><polygon class="cls-5" points="758.32 546.99 793.23 527.43 746.71 463.66 732.84 513.43 758.32 546.99"/><polygon class="cls-5" points="758.32 546.99 793.23 527.43 746.71 463.66 732.84 513.43 758.32 546.99"/><polygon class="cls-5" points="787.99 586.09 812.1 553.29 793.23 527.43 758.32 546.99 787.99 586.09"/><polygon class="cls-5" points="787.99 586.09 812.1 553.29 793.23 527.43 758.32 546.99 787.99 586.09"/><polygon class="cls-5" points="787.99 586.09 812.1 553.29 793.23 527.43 758.32 546.99 787.99 586.09"/><polygon class="cls-5" points="787.99 586.09 812.1 553.29 793.23 527.43 758.32 546.99 787.99 586.09"/><polygon class="cls-5" points="784.87 220.77 812.18 211.16 812.18 144.77 756.51 175.96 784.87 220.77"/><polygon class="cls-5" points="807.26 256.17 812.18 252.33 812.18 228.59 805.35 253.14 807.26 256.17"/><polygon class="cls-5" points="593.99 266.99 589.27 269.64 614.14 280.81 619.35 278.98 593.99 266.99"/><polygon class="cls-5" points="812.18 263.94 812.18 252.33 807.26 256.17 812.18 263.94"/><polygon class="cls-5" points="812.18 263.94 812.18 252.33 807.26 256.17 812.18 263.94"/><polygon class="cls-5" points="796.57 362.76 777.34 353.67 777.23 354.07 796.57 362.76"/><polygon class="cls-5" points="796.57 362.76 777.34 353.67 777.23 354.07 796.57 362.76"/><polygon class="cls-5" points="609.62 219.39 589.28 264.76 593.99 266.99 619.88 252.49 609.62 219.39"/><polygon class="cls-5" points="756.51 175.96 681.92 58.07 647.28 135.35 720.21 196.29 756.51 175.96"/><polygon class="cls-5" points="796.57 362.76 812.18 370.14 812.18 342.49 800.38 364.47 796.57 362.76"/><polygon class="cls-5" points="796.57 362.76 812.18 370.14 812.18 342.49 800.38 364.47 796.57 362.76"/><polygon class="cls-5" points="759.97 229.52 784.87 220.77 756.51 175.96 720.21 196.29 759.97 229.52"/><polygon class="cls-5" points="759.97 229.52 784.87 220.77 756.51 175.96 720.21 196.29 759.97 229.52"/><polygon class="cls-5" points="807.26 256.17 805.35 253.14 803.73 258.92 807.26 256.17"/><polygon class="cls-5" points="807.26 256.17 805.35 253.14 803.73 258.92 807.26 256.17"/><polygon class="cls-5" points="627.24 276.2 619.88 252.49 593.99 266.99 619.35 278.98 627.24 276.2"/><polygon class="cls-5" points="627.24 276.2 619.88 252.49 593.99 266.99 619.35 278.98 627.24 276.2"/><polygon class="cls-5" points="803.73 258.92 802.11 264.74 812.18 273.15 812.18 263.94 807.26 256.17 803.73 258.92"/><polygon class="cls-5" points="803.73 258.92 802.11 264.74 812.18 273.15 812.18 263.94 807.26 256.17 803.73 258.92"/><polygon class="cls-5" points="803.73 258.92 802.11 264.74 812.18 273.15 812.18 263.94 807.26 256.17 803.73 258.92"/><polygon class="cls-5" points="777.34 353.67 796.57 362.76 800.38 364.47 812.18 342.49 812.18 309.48 777.92 351.58 777.34 353.67"/><polygon class="cls-5" points="777.34 353.67 796.57 362.76 800.38 364.47 812.18 342.49 812.18 309.48 777.92 351.58 777.34 353.67"/><polygon class="cls-5" points="777.34 353.67 796.57 362.76 800.38 364.47 812.18 342.49 812.18 309.48 777.92 351.58 777.34 353.67"/><polygon class="cls-5" points="561.24 63.45 609.62 219.39 647.28 135.35 561.24 63.45"/><polygon class="cls-5" points="720.21 196.29 647.28 135.35 609.62 219.39 619.88 252.49 720.21 196.29"/><polygon class="cls-5" points="720.21 196.29 647.28 135.35 609.62 219.39 619.88 252.49 720.21 196.29"/><polygon class="cls-5" points="720.21 196.29 619.88 252.49 627.24 276.2 759.97 229.52 720.21 196.29"/><polygon class="cls-5" points="720.21 196.29 619.88 252.49 627.24 276.2 759.97 229.52 720.21 196.29"/><polygon class="cls-5" points="720.21 196.29 619.88 252.49 627.24 276.2 759.97 229.52 720.21 196.29"/><polygon class="cls-5" points="777.92 351.58 812.18 309.48 812.18 273.15 802.11 264.74 777.92 351.58"/><polygon class="cls-5" points="777.92 351.58 812.18 309.48 812.18 273.15 802.11 264.74 777.92 351.58"/><polygon class="cls-5" points="777.92 351.58 812.18 309.48 812.18 273.15 802.11 264.74 777.92 351.58"/><polygon class="cls-5" points="777.92 351.58 812.18 309.48 812.18 273.15 802.11 264.74 777.92 351.58"/><polygon class="cls-5" points="127.34 402.57 117.87 419.77 128.05 456.61 162.11 461.65 189.93 428.61 160.2 404.42 127.34 402.57"/><polygon class="cls-5" points="208.02 407.11 196.51 406.46 194.78 422.84 208.02 407.11"/><polygon class="cls-5" points="107.16 526.93 72.36 502.41 69.06 508.41 97.66 538.23 107.16 526.93"/><polygon class="cls-5" points="107.16 526.93 72.36 502.41 69.06 508.41 97.66 538.23 107.16 526.93"/><polygon class="cls-5" points="136.84 488.43 126.09 479 133.01 496.22 162.11 461.65 128.05 456.61 136.84 488.43"/><polygon class="cls-5" points="136.84 488.43 126.09 479 133.01 496.22 162.11 461.65 128.05 456.61 136.84 488.43"/><polygon class="cls-5" points="117.87 419.77 127.34 402.57 112.89 401.76 117.87 419.77"/><polygon class="cls-5" points="117.87 419.77 127.34 402.57 112.89 401.76 117.87 419.77"/><polygon class="cls-5" points="44.44 482.73 69.06 508.41 72.36 502.41 44.44 482.73"/><polygon class="cls-5" points="44.44 482.73 69.06 508.41 72.36 502.41 44.44 482.73"/><polygon class="cls-5" points="44.44 482.73 69.06 508.41 72.36 502.41 44.44 482.73"/><polygon class="cls-5" points="189.93 428.61 194.78 422.84 196.51 406.46 160.2 404.42 189.93 428.61"/><polygon class="cls-5" points="189.93 428.61 194.78 422.84 196.51 406.46 160.2 404.42 189.93 428.61"/><polygon class="cls-5" points="69.06 508.41 50.49 542.14 90.45 546.78 97.66 538.23 69.06 508.41"/><polygon class="cls-5" points="69.06 508.41 50.49 542.14 90.45 546.78 97.66 538.23 69.06 508.41"/><polygon class="cls-5" points="69.06 508.41 50.49 542.14 90.45 546.78 97.66 538.23 69.06 508.41"/><polygon class="cls-5" points="69.06 508.41 44.44 482.73 12.54 460.26 12.54 537.74 50.49 542.14 69.06 508.41"/><polygon class="cls-5" points="69.06 508.41 44.44 482.73 12.54 460.26 12.54 537.74 50.49 542.14 69.06 508.41"/><polygon class="cls-5" points="69.06 508.41 44.44 482.73 12.54 460.26 12.54 537.74 50.49 542.14 69.06 508.41"/><polygon class="cls-5" points="69.06 508.41 44.44 482.73 12.54 460.26 12.54 537.74 50.49 542.14 69.06 508.41"/><polygon class="cls-5" points="12.54 568.58 12.54 639.34 47.57 597.73 12.54 568.58"/><polygon class="cls-5" points="12.54 568.58 12.54 639.34 47.57 597.73 12.54 568.58"/><polygon class="cls-5" points="12.54 568.58 12.54 639.34 47.57 597.73 12.54 568.58"/><polygon class="cls-5" points="90.45 546.78 50.49 542.14 36.91 566.8 12.54 556.13 12.54 568.58 47.57 597.73 90.45 546.78"/><polygon class="cls-5" points="90.45 546.78 50.49 542.14 36.91 566.8 12.54 556.13 12.54 568.58 47.57 597.73 90.45 546.78"/><polygon class="cls-5" points="90.45 546.78 50.49 542.14 36.91 566.8 12.54 556.13 12.54 568.58 47.57 597.73 90.45 546.78"/><polygon class="cls-5" points="90.45 546.78 50.49 542.14 36.91 566.8 12.54 556.13 12.54 568.58 47.57 597.73 90.45 546.78"/><polygon class="cls-5" points="50.49 542.14 12.54 537.74 12.54 556.13 36.91 566.8 50.49 542.14"/><polygon class="cls-5" points="50.49 542.14 12.54 537.74 12.54 556.13 36.91 566.8 50.49 542.14"/><polygon class="cls-5" points="50.49 542.14 12.54 537.74 12.54 556.13 36.91 566.8 50.49 542.14"/><polygon class="cls-5" points="50.49 542.14 12.54 537.74 12.54 556.13 36.91 566.8 50.49 542.14"/><polygon class="cls-5" points="50.49 542.14 12.54 537.74 12.54 556.13 36.91 566.8 50.49 542.14"/><polygon class="cls-5" points="116.4 454.89 128.05 456.61 117.87 419.77 108.86 436.13 116.4 454.89"/><polygon class="cls-5" points="116.4 454.89 128.05 456.61 117.87 419.77 108.86 436.13 116.4 454.89"/><polygon class="cls-5" points="126.09 479 136.84 488.43 128.05 456.61 116.4 454.89 126.09 479"/><polygon class="cls-5" points="126.09 479 136.84 488.43 128.05 456.61 116.4 454.89 126.09 479"/><polygon class="cls-5" points="126.09 479 136.84 488.43 128.05 456.61 116.4 454.89 126.09 479"/><polygon class="cls-5" points="117.87 419.77 112.89 401.76 94.63 400.73 108.86 436.13 117.87 419.77"/><polygon class="cls-5" points="117.87 419.77 112.89 401.76 94.63 400.73 108.86 436.13 117.87 419.77"/><polygon class="cls-5" points="117.87 419.77 112.89 401.76 94.63 400.73 108.86 436.13 117.87 419.77"/><polygon class="cls-5" points="133.01 496.22 126.09 479 98.55 454.85 72.36 502.41 107.16 526.93 133.01 496.22"/><polygon class="cls-5" points="133.01 496.22 126.09 479 98.55 454.85 72.36 502.41 107.16 526.93 133.01 496.22"/><polygon class="cls-5" points="133.01 496.22 126.09 479 98.55 454.85 72.36 502.41 107.16 526.93 133.01 496.22"/><polygon class="cls-5" points="32.9 397.25 12.54 396.11 12.54 439.52 94.99 451.72 32.9 397.25"/><polygon class="cls-5" points="32.9 397.25 12.54 396.11 12.54 439.52 94.99 451.72 32.9 397.25"/><polygon class="cls-5" points="32.9 397.25 12.54 396.11 12.54 439.52 94.99 451.72 32.9 397.25"/><polygon class="cls-5" points="72.36 502.41 98.55 454.85 94.99 451.72 12.54 439.52 12.54 449.48 44.44 482.73 72.36 502.41"/><polygon class="cls-5" points="72.36 502.41 98.55 454.85 94.99 451.72 12.54 439.52 12.54 449.48 44.44 482.73 72.36 502.41"/><polygon class="cls-5" points="72.36 502.41 98.55 454.85 94.99 451.72 12.54 439.52 12.54 449.48 44.44 482.73 72.36 502.41"/><polygon class="cls-5" points="72.36 502.41 98.55 454.85 94.99 451.72 12.54 439.52 12.54 449.48 44.44 482.73 72.36 502.41"/><polygon class="cls-5" points="12.54 449.48 12.54 460.26 44.44 482.73 12.54 449.48"/><polygon class="cls-5" points="12.54 449.48 12.54 460.26 44.44 482.73 12.54 449.48"/><polygon class="cls-5" points="12.54 449.48 12.54 460.26 44.44 482.73 12.54 449.48"/><polygon class="cls-5" points="12.54 449.48 12.54 460.26 44.44 482.73 12.54 449.48"/><polygon class="cls-5" points="12.54 449.48 12.54 460.26 44.44 482.73 12.54 449.48"/><polygon class="cls-5" points="99.88 452.44 116.4 454.89 108.86 436.13 99.88 452.44"/><polygon class="cls-5" points="99.88 452.44 116.4 454.89 108.86 436.13 99.88 452.44"/><polygon class="cls-5" points="99.88 452.44 116.4 454.89 108.86 436.13 99.88 452.44"/><polygon class="cls-5" points="116.4 454.89 99.88 452.44 98.55 454.85 126.09 479 116.4 454.89"/><polygon class="cls-5" points="116.4 454.89 99.88 452.44 98.55 454.85 126.09 479 116.4 454.89"/><polygon class="cls-5" points="116.4 454.89 99.88 452.44 98.55 454.85 126.09 479 116.4 454.89"/><polygon class="cls-5" points="116.4 454.89 99.88 452.44 98.55 454.85 126.09 479 116.4 454.89"/><polygon class="cls-5" points="108.86 436.13 94.63 400.73 32.9 397.25 94.99 451.72 99.88 452.44 108.86 436.13"/><polygon class="cls-5" points="108.86 436.13 94.63 400.73 32.9 397.25 94.99 451.72 99.88 452.44 108.86 436.13"/><polygon class="cls-5" points="108.86 436.13 94.63 400.73 32.9 397.25 94.99 451.72 99.88 452.44 108.86 436.13"/><polygon class="cls-5" points="108.86 436.13 94.63 400.73 32.9 397.25 94.99 451.72 99.88 452.44 108.86 436.13"/><polygon class="cls-5" points="94.99 451.72 98.55 454.85 99.88 452.44 94.99 451.72"/><polygon class="cls-5" points="94.99 451.72 98.55 454.85 99.88 452.44 94.99 451.72"/><polygon class="cls-5" points="94.99 451.72 98.55 454.85 99.88 452.44 94.99 451.72"/><polygon class="cls-5" points="94.99 451.72 98.55 454.85 99.88 452.44 94.99 451.72"/><polygon class="cls-5" points="94.99 451.72 98.55 454.85 99.88 452.44 94.99 451.72"/><polygon class="cls-5" points="637.91 388.38 657.34 373.22 631.02 288.39 614.14 280.81 598.82 286.19 649.65 443.3 659.47 416.77 637.91 388.38"/><polygon class="cls-5" points="678.52 532.54 694.72 582.62 717.06 570.1 720.25 558.63 678.52 532.54"/><polygon class="cls-5" points="678.52 532.54 694.72 582.62 717.06 570.1 720.25 558.63 678.52 532.54"/><polygon class="cls-5" points="675.85 438.36 659.47 416.77 649.65 443.3 651.18 448.05 675.85 438.36"/><polygon class="cls-5" points="675.85 438.36 659.47 416.77 649.65 443.3 651.18 448.05 675.85 438.36"/><polygon class="cls-5" points="704.85 613.93 717.06 570.1 694.72 582.62 704.85 613.93"/><polygon class="cls-5" points="704.85 613.93 717.06 570.1 694.72 582.62 704.85 613.93"/><polygon class="cls-5" points="704.85 613.93 717.06 570.1 694.72 582.62 704.85 613.93"/><polygon class="cls-5" points="657.34 373.22 637.91 388.38 659.47 416.77 665.66 400.04 657.34 373.22"/><polygon class="cls-5" points="657.34 373.22 637.91 388.38 659.47 416.77 665.66 400.04 657.34 373.22"/><polygon class="cls-5" points="722.1 420.19 763.33 403.99 777.23 354.07 776.26 353.63 722.1 420.19"/><polygon class="cls-5" points="722.1 420.19 763.33 403.99 777.23 354.07 776.26 353.63 722.1 420.19"/><polygon class="cls-5" points="665.66 400.04 659.47 416.77 675.85 438.36 677.36 437.77 665.66 400.04"/><polygon class="cls-5" points="665.66 400.04 659.47 416.77 675.85 438.36 677.36 437.77 665.66 400.04"/><polygon class="cls-5" points="665.66 400.04 659.47 416.77 675.85 438.36 677.36 437.77 665.66 400.04"/><polygon class="cls-5" points="732.84 513.43 691.04 458.36 685.76 464.85 678.71 442.13 675.85 438.36 651.18 448.05 678.52 532.54 720.25 558.63 732.84 513.43"/><polygon class="cls-5" points="732.84 513.43 691.04 458.36 685.76 464.85 678.71 442.13 675.85 438.36 651.18 448.05 678.52 532.54 720.25 558.63 732.84 513.43"/><polygon class="cls-5" points="732.84 513.43 691.04 458.36 685.76 464.85 678.71 442.13 675.85 438.36 651.18 448.05 678.52 532.54 720.25 558.63 732.84 513.43"/><polygon class="cls-5" points="718.35 424.8 746.71 463.66 763.33 403.99 722.1 420.19 718.35 424.8"/><polygon class="cls-5" points="718.35 424.8 746.71 463.66 763.33 403.99 722.1 420.19 718.35 424.8"/><polygon class="cls-5" points="718.35 424.8 746.71 463.66 763.33 403.99 722.1 420.19 718.35 424.8"/><polygon class="cls-5" points="677.36 437.77 675.85 438.36 678.71 442.13 677.36 437.77"/><polygon class="cls-5" points="677.36 437.77 675.85 438.36 678.71 442.13 677.36 437.77"/><polygon class="cls-5" points="677.36 437.77 675.85 438.36 678.71 442.13 677.36 437.77"/><polygon class="cls-5" points="677.36 437.77 675.85 438.36 678.71 442.13 677.36 437.77"/><polygon class="cls-5" points="691.04 458.36 732.84 513.43 746.71 463.66 718.35 424.8 691.04 458.36"/><polygon class="cls-5" points="691.04 458.36 732.84 513.43 746.71 463.66 718.35 424.8 691.04 458.36"/><polygon class="cls-5" points="691.04 458.36 732.84 513.43 746.71 463.66 718.35 424.8 691.04 458.36"/><polygon class="cls-5" points="691.04 458.36 732.84 513.43 746.71 463.66 718.35 424.8 691.04 458.36"/><polygon class="cls-5" points="629.61 283.82 619.35 278.98 614.14 280.81 631.02 288.39 629.61 283.82"/><polygon class="cls-5" points="629.61 283.82 619.35 278.98 614.14 280.81 631.02 288.39 629.61 283.82"/><polygon class="cls-5" points="805.35 253.14 812.18 228.59 812.18 211.16 784.87 220.77 805.35 253.14"/><polygon class="cls-5" points="805.35 253.14 812.18 228.59 812.18 211.16 784.87 220.77 805.35 253.14"/><polygon class="cls-5" points="776.26 353.63 777.23 354.07 777.34 353.67 776.54 353.29 776.26 353.63"/><polygon class="cls-5" points="776.26 353.63 777.23 354.07 777.34 353.67 776.54 353.29 776.26 353.63"/><polygon class="cls-5" points="776.26 353.63 777.23 354.07 777.34 353.67 776.54 353.29 776.26 353.63"/><polygon class="cls-5" points="799.3 262.39 803.73 258.92 805.35 253.14 784.87 220.77 759.97 229.52 799.3 262.39"/><polygon class="cls-5" points="799.3 262.39 803.73 258.92 805.35 253.14 784.87 220.77 759.97 229.52 799.3 262.39"/><polygon class="cls-5" points="799.3 262.39 803.73 258.92 805.35 253.14 784.87 220.77 759.97 229.52 799.3 262.39"/><polygon class="cls-5" points="619.35 278.98 629.61 283.82 627.24 276.2 619.35 278.98"/><polygon class="cls-5" points="619.35 278.98 629.61 283.82 627.24 276.2 619.35 278.98"/><polygon class="cls-5" points="619.35 278.98 629.61 283.82 627.24 276.2 619.35 278.98"/><polygon class="cls-5" points="777.34 353.67 777.92 351.58 776.54 353.29 777.34 353.67"/><polygon class="cls-5" points="777.34 353.67 777.92 351.58 776.54 353.29 777.34 353.67"/><polygon class="cls-5" points="777.34 353.67 777.92 351.58 776.54 353.29 777.34 353.67"/><polygon class="cls-5" points="777.34 353.67 777.92 351.58 776.54 353.29 777.34 353.67"/><polygon class="cls-5" points="802.11 264.74 803.73 258.92 799.3 262.39 802.11 264.74"/><polygon class="cls-5" points="802.11 264.74 803.73 258.92 799.3 262.39 802.11 264.74"/><polygon class="cls-5" points="802.11 264.74 803.73 258.92 799.3 262.39 802.11 264.74"/><polygon class="cls-5" points="802.11 264.74 803.73 258.92 799.3 262.39 802.11 264.74"/><polygon class="cls-5" points="631.02 288.39 657.34 373.22 716.7 326.88 631.02 288.39"/><polygon class="cls-5" points="631.02 288.39 657.34 373.22 716.7 326.88 631.02 288.39"/><polygon class="cls-5" points="677.31 368.55 716.57 422.36 722.1 420.19 776.26 353.63 716.7 326.88 657.34 373.22 665.66 400.04 677.31 368.55"/><polygon class="cls-5" points="677.31 368.55 716.57 422.36 722.1 420.19 776.26 353.63 716.7 326.88 657.34 373.22 665.66 400.04 677.31 368.55"/><polygon class="cls-5" points="677.31 368.55 716.57 422.36 722.1 420.19 776.26 353.63 716.7 326.88 657.34 373.22 665.66 400.04 677.31 368.55"/><polygon class="cls-5" points="677.31 368.55 665.66 400.04 677.36 437.77 716.57 422.36 677.31 368.55"/><polygon class="cls-5" points="677.31 368.55 665.66 400.04 677.36 437.77 716.57 422.36 677.31 368.55"/><polygon class="cls-5" points="677.31 368.55 665.66 400.04 677.36 437.77 716.57 422.36 677.31 368.55"/><polygon class="cls-5" points="677.31 368.55 665.66 400.04 677.36 437.77 716.57 422.36 677.31 368.55"/><polygon class="cls-5" points="685.76 464.85 691.04 458.36 678.71 442.13 685.76 464.85"/><polygon class="cls-5" points="685.76 464.85 691.04 458.36 678.71 442.13 685.76 464.85"/><polygon class="cls-5" points="685.76 464.85 691.04 458.36 678.71 442.13 685.76 464.85"/><polygon class="cls-5" points="685.76 464.85 691.04 458.36 678.71 442.13 685.76 464.85"/><polygon class="cls-5" points="718.35 424.8 722.1 420.19 716.57 422.36 718.35 424.8"/><polygon class="cls-5" points="718.35 424.8 722.1 420.19 716.57 422.36 718.35 424.8"/><polygon class="cls-5" points="718.35 424.8 722.1 420.19 716.57 422.36 718.35 424.8"/><polygon class="cls-5" points="718.35 424.8 722.1 420.19 716.57 422.36 718.35 424.8"/><polygon class="cls-5" points="677.36 437.77 678.71 442.13 691.04 458.36 718.35 424.8 716.57 422.36 677.36 437.77"/><polygon class="cls-5" points="677.36 437.77 678.71 442.13 691.04 458.36 718.35 424.8 716.57 422.36 677.36 437.77"/><polygon class="cls-5" points="677.36 437.77 678.71 442.13 691.04 458.36 718.35 424.8 716.57 422.36 677.36 437.77"/><polygon class="cls-5" points="677.36 437.77 678.71 442.13 691.04 458.36 718.35 424.8 716.57 422.36 677.36 437.77"/><polygon class="cls-5" points="677.36 437.77 678.71 442.13 691.04 458.36 718.35 424.8 716.57 422.36 677.36 437.77"/><polygon class="cls-5" points="718.2 325.71 629.61 283.82 631.02 288.39 716.7 326.88 718.2 325.71"/><polygon class="cls-5" points="718.2 325.71 629.61 283.82 631.02 288.39 716.7 326.88 718.2 325.71"/><polygon class="cls-5" points="718.2 325.71 629.61 283.82 631.02 288.39 716.7 326.88 718.2 325.71"/><polygon class="cls-5" points="776.26 353.63 776.54 353.29 718.2 325.71 716.7 326.88 776.26 353.63"/><polygon class="cls-5" points="776.26 353.63 776.54 353.29 718.2 325.71 716.7 326.88 776.26 353.63"/><polygon class="cls-5" points="776.26 353.63 776.54 353.29 718.2 325.71 716.7 326.88 776.26 353.63"/><polygon class="cls-5" points="776.26 353.63 776.54 353.29 718.2 325.71 716.7 326.88 776.26 353.63"/><polygon class="cls-5" points="799.3 262.39 759.97 229.52 627.24 276.2 629.61 283.82 718.2 325.71 799.3 262.39"/><polygon class="cls-5" points="799.3 262.39 759.97 229.52 627.24 276.2 629.61 283.82 718.2 325.71 799.3 262.39"/><polygon class="cls-5" points="799.3 262.39 759.97 229.52 627.24 276.2 629.61 283.82 718.2 325.71 799.3 262.39"/><polygon class="cls-5" points="799.3 262.39 759.97 229.52 627.24 276.2 629.61 283.82 718.2 325.71 799.3 262.39"/><polygon class="cls-5" points="718.2 325.71 776.54 353.29 777.92 351.58 802.11 264.74 799.3 262.39 718.2 325.71"/><polygon class="cls-5" points="718.2 325.71 776.54 353.29 777.92 351.58 802.11 264.74 799.3 262.39 718.2 325.71"/><polygon class="cls-5" points="718.2 325.71 776.54 353.29 777.92 351.58 802.11 264.74 799.3 262.39 718.2 325.71"/><polygon class="cls-5" points="718.2 325.71 776.54 353.29 777.92 351.58 802.11 264.74 799.3 262.39 718.2 325.71"/><polygon class="cls-5" points="718.2 325.71 776.54 353.29 777.92 351.58 802.11 264.74 799.3 262.39 718.2 325.71"/><text class="cls-6" transform="translate(536 441.33)">vikes</text><text class="cls-6" transform="translate(78.7 441.18)">Robo</text><text class="cls-7" transform="translate(193.41 688.25)">Gene<tspan class="cls-8" x="95.5" y="0">v</tspan><tspan x="113.98" y="0">aRob</tspan><tspan class="cls-9" x="216.47" y="0">O</tspan><tspan x="244.05" y="0">vikes.</tspan><tspan class="cls-10" x="353.06" y="0">c</tspan><tspan x="376.86" y="0">om</tspan></text><path class="cls-11" d="M485.33,419.12c-51.18,71.76-114.16,101.56-147.83,83.57-6.52-3.48-19.62-12.87-27.08-40.91q-4.08,31.86-8.17,63.72l9.45-11.84,28.22,53.45,67.76-35.3,2.05,13.6,62.38-56.19Q478.73,454.18,485.33,419.12Z" transform="translate(12.55 11.32)"/><path class="cls-11" d="M304.57,395.31a99.4,99.4,0,0,0,20.57,11.57c30.94,12.83,72.63,11.32,105.52-7.08,20.9-11.7,29.23-25.18,40.4-21.44,9.44,3.16,13.71,16.21,15.85,27.15q0-24.92,0-49.81a256,256,0,0,1-49.07,22.38c-25.23,8.39-54,17.65-87.1,9.48A112.86,112.86,0,0,1,325,377.74a18.23,18.23,0,0,1-5.66,13.06A18.45,18.45,0,0,1,304.57,395.31Z" transform="translate(12.55 11.32)"/><path class="cls-11" d="M325.8,367.08a118.36,118.36,0,0,0,27.09,9.5c33.09,7.23,61.14-1.82,84.7-9.74a248.54,248.54,0,0,0,48.93-22.66c-27.35-1.77-45-12-45.12-21.22-.18-10.4,22-18.75,23.84-19.44-39.13-18.83-83-14.83-111.06,10C333.08,332.21,327.48,356.9,325.8,367.08Z" transform="translate(12.55 11.32)"/><path class="cls-12" d="M497,336.8c6.33-6.89,14.74-18.19,16.86-33.29,3.53-25.06-13.76-35.76-18.31-61.25-6.14-34.46,19.56-47.92,27.36-89.3,3.89-20.6,4.11-52.19-17.19-95.25,9.31,41.23,4.95,71.49-.87,91.64-12.74,44.09-37.92,58.78-32.76,93.9,3.62,24.65,19.07,38.12,10.95,54.2-7.85,15.53-29.83,17.33-28.43,25.3,1.24,7.05,17.56,10.75,24.27,12.27A73.25,73.25,0,0,0,497,336.8Z" transform="translate(12.55 11.32)"/><path class="cls-12" d="M346.94,306.18A75.39,75.39,0,0,0,324.2,335.9c-6.95-7-16.1-18.37-17.92-33.58-2.62-21.84,12.64-30.95,17.17-52.82,7.1-34.2-19.62-50.39-28-90.86-4.38-21.22-4.41-52.39,16.39-94.51-9.05,41.17-4.33,71,1.63,90.68,13.26,43.73,39.67,61.63,32.64,95.46-3.63,17.44-18.08,33-10.51,46.43C338.5,301.79,343.29,304.59,346.94,306.18Z" transform="translate(12.55 11.32)"/></svg>