<svg id="Layer_2" data-name="Layer 2" xmlns="http://www.w3.org/2000/svg" viewBox="0 0 123.93 270.65"><defs><style>.cls-1,.cls-2{fill:#fff;}.cls-1{stroke:#006498;stroke-linecap:square;stroke-miterlimit:10;stroke-width:3px;}</style></defs><title>variant2</title><path class="cls-1" d="M188.36,205.39c-27.27,35.67-59.84,49.78-76.68,40.06-3.26-1.89-9.78-6.89-13.1-21.29q-2.61,16.16-5.23,32.3l5-5.86,13.46,27.68,35.1-16.82.82,7,32.71-27.56Q184.4,223.13,188.36,205.39Z" transform="translate(-90.98 -9.63)"/><path class="cls-1" d="M96.72,190.22A50.82,50.82,0,0,0,107,196.45c15.54,7.06,36.79,7,53.85-1.82,10.83-5.6,15.31-12.33,20.93-10.23,4.75,1.76,6.71,8.48,7.61,14.09q.42-12.69.85-25.37a129.59,129.59,0,0,1-25.37,10.57c-13,3.85-27.77,8.08-44.5,3.36a57.34,57.34,0,0,1-12.93-5.43,9.34,9.34,0,0,1-3.1,6.55A9.45,9.45,0,0,1,96.72,190.22Z" transform="translate(-90.98 -9.63)"/><path class="cls-1" d="M108,176.2a60.2,60.2,0,0,0,13.63,5.3c16.73,4.23,31.16.1,43.29-3.54a126.25,126.25,0,0,0,25.3-10.71c-13.9-1.36-22.7-6.88-22.62-11.56.09-5.3,11.5-9.18,12.47-9.5-19.61-10.24-42-8.95-56.72,3.22C112.3,158.57,109,171.05,108,176.2Z" transform="translate(-90.98 -9.63)"/><path class="cls-1" d="M195.68,163.67c3.34-3.4,7.81-9,9.15-16.66,2.21-12.7-6.41-18.44-8.29-31.5C194,97.86,207.3,91.44,212,70.5c2.33-10.42,3-26.5-7.14-48.78,4,21.14,1.31,36.48-2,46.64-7.23,22.24-20.3,29.29-18.27,47.26,1.43,12.61,9.07,19.73,4.66,27.78-4.26,7.78-15.48,8.32-14.9,12.4.51,3.61,8.76,5.77,12.15,6.66A37.7,37.7,0,0,0,195.68,163.67Z" transform="translate(-90.98 -9.63)"/><path class="cls-1" d="M119.8,145.55a38.35,38.35,0,0,0-12.08,14.75c-3.42-3.66-7.89-9.63-8.56-17.4-1-11.17,7-15.54,9.64-26.6C113,99,99.66,90.3,96.09,69.56,94.21,58.68,94.73,42.81,106,21.72c-5.31,20.81-3.4,36.09-.7,46.19,6,22.49,19.16,32.05,15,49.16-2.15,8.82-9.77,16.49-6.14,23.46A11.83,11.83,0,0,0,119.8,145.55Z" transform="translate(-90.98 -9.63)"/><path class="cls-2" d="M188.36,205.39q-4,17.73-7.91,35.47l-32.71,27.56-.82-7-35.1,16.82L98.36,250.6l-5,5.86q2.61-16.15,5.23-32.3c3.32,14.4,9.84,19.4,13.1,21.29a24.2,24.2,0,0,0,12.23,3c17.8,0,42.8-14.73,64.45-43.05m2-4.22-2.76,3.61c-19.81,25.92-44.79,42.66-63.65,42.66a23.14,23.14,0,0,1-11.73-2.86c-5.94-3.43-10.3-10.57-12.62-20.65l-1.15-5-.82,5L95,240.15,92.36,256.3l-.57,3.53,2.32-2.72,4-4.7,12.8,26.31.44.9.89-.43L146.09,263l.65,5.57.22,1.85,1.42-1.2,32.71-27.56.26-.21.07-.33,5.62-25.2,2.29-10.27,1-4.44Z" transform="translate(-90.98 -9.63)"/><path class="cls-2" d="M190.24,173.12q-.44,12.69-.85,25.37c-.9-5.61-2.86-12.33-7.61-14.09a6,6,0,0,0-2.12-.4c-4.75,0-9.36,5.74-18.81,10.63a64,64,0,0,1-29.17,6.88A60.2,60.2,0,0,1,107,196.45a50.82,50.82,0,0,1-10.28-6.23,9.27,9.27,0,0,0,1.58.13,9.17,9.17,0,0,0,6-2.18,9.34,9.34,0,0,0,3.1-6.55,57.34,57.34,0,0,0,12.93,5.43,55.73,55.73,0,0,0,15.26,2.09c10.62,0,20.35-2.81,29.24-5.45a129.59,129.59,0,0,0,25.37-10.57m1-1.71-1.53.84a129.93,129.93,0,0,1-25.17,10.48c-8.13,2.41-18.24,5.41-29,5.41a54.4,54.4,0,0,1-15-2,56.75,56.75,0,0,1-12.71-5.34l-1.44-.82,0,1.65a8.29,8.29,0,0,1-2.76,5.84,8.15,8.15,0,0,1-5.38,1.93,7.1,7.1,0,0,1-1.39-.12l-4-.74L96.11,191a51.84,51.84,0,0,0,10.48,6.37,61.22,61.22,0,0,0,25.09,5.14,64.8,64.8,0,0,0,29.62-7,81.27,81.27,0,0,0,9.9-6.23c3.5-2.49,6-4.29,8.46-4.29a5,5,0,0,1,1.77.33c3.41,1.27,5.75,5.75,7,13.31l2-.12.42-12.48.42-12.88.06-1.75Z" transform="translate(-90.98 -9.63)"/><path class="cls-2" d="M152.88,139.31a59,59,0,0,1,27.2,6.88c-1,.32-12.38,4.2-12.47,9.5-.08,4.68,8.72,10.2,22.62,11.56A126.25,126.25,0,0,1,164.93,178c-8.48,2.54-18.08,5.33-28.8,5.33a59,59,0,0,1-14.49-1.79A60.2,60.2,0,0,1,108,176.2c1-5.15,4.29-17.63,15.35-26.79,8.09-6.7,18.51-10.1,29.52-10.1m0-1c-11.4,0-22.11,3.67-30.15,10.33-10.68,8.84-14.42,20.94-15.7,27.37l-.15.72.66.35a61.25,61.25,0,0,0,13.85,5.38,59.17,59.17,0,0,0,14.74,1.83c11.18,0,21.11-3,29.09-5.37a128.62,128.62,0,0,0,25.49-10.79l2.8-1.56-3.19-.31c-13.07-1.28-21.78-6.49-21.71-10.56.06-3.71,7.74-7.22,11.78-8.56l2.25-.74-2.1-1.1a60.15,60.15,0,0,0-27.66-7Z" transform="translate(-90.98 -9.63)"/><path class="cls-2" d="M204.83,21.72C214.94,44,214.3,60.08,212,70.5c-4.67,20.94-18,27.36-15.43,45,1.88,13.06,10.5,18.8,8.29,31.5-1.34,7.65-5.81,13.26-9.15,16.66a37.7,37.7,0,0,1-9.2-1.21c-3.39-.89-11.64-3.05-12.15-6.66-.58-4.08,10.64-4.62,14.9-12.4,4.41-8.05-3.23-15.17-4.66-27.78-2-18,11-25,18.27-47.26,3.3-10.16,6-25.5,2-46.64m-2.56-8.06,1.57,8.24c3.21,16.76,2.55,32.29-2,46.15-2.92,9-6.82,15.48-10.26,21.22-5,8.32-9.29,15.49-8,26.46a52.82,52.82,0,0,0,3.59,13.16c2,5.37,3.61,9.61,1.18,14-2.11,3.87-6.19,5.87-9.46,7.48s-5.92,2.92-5.55,5.54c.53,3.76,6.82,5.9,12.89,7.49a38.32,38.32,0,0,0,9.44,1.24h.42l.3-.31c5.18-5.27,8.35-11.06,9.42-17.19,1.34-7.69-1.13-12.93-3.74-18.48-1.86-3.94-3.78-8-4.54-13.33-1.4-9.68,2.21-16,6.39-23.28,3.27-5.71,7-12.17,9-21.37,3.33-14.92.9-31.54-7.21-49.42l-3.47-7.64Z" transform="translate(-90.98 -9.63)"/><path class="cls-2" d="M106,21.72c-5.31,20.81-3.4,36.09-.7,46.19,6,22.49,19.16,32.05,15,49.16-2.15,8.82-9.77,16.49-6.14,23.46a11.83,11.83,0,0,0,5.6,5,38.35,38.35,0,0,0-12.08,14.75c-3.42-3.66-7.89-9.63-8.56-17.4-1-11.17,7-15.54,9.64-26.6C113,99,99.66,90.3,96.09,69.56,94.21,58.68,94.73,42.81,106,21.72M109,14l-3.87,7.24C95.91,38.48,92.53,54.79,95.1,69.73c1.52,8.82,4.8,15.56,7.7,21.5,4,8.12,7.38,15.13,5,24.83a39.06,39.06,0,0,1-4.94,11c-2.73,4.66-5.31,9.06-4.72,15.89.54,6.26,3.5,12.32,8.82,18l1,1.08.62-1.34a37.42,37.42,0,0,1,11.77-14.36l1.35-1-1.51-.71a10.76,10.76,0,0,1-5.14-4.58c-2.1-4,0-8.45,2.53-13.55a47.09,47.09,0,0,0,3.69-9.22c2.6-10.74-1.46-18.77-6.18-28.07-3-6-6.5-12.84-8.84-21.58-3.71-13.89-3.48-29.27.71-45.69l2-8Z" transform="translate(-90.98 -9.63)"/></svg>